<svg version="1.1" id="HkA7aDLB8G" xmlns="http://www.w3.org/2000/svg" xmlns:xlink="http://www.w3.org/1999/xlink" x="0px" y="0px" viewBox="0 0 512.001 512.001" style="enable-background:new 0 0 512.001 512.001;" xmlns:svgjs="http://svgjs.com/svgjs">
    <style type="text/css">
        @-webkit-keyframes Sk8gmaDLrUz_rJ-FdUr8M_Animation{1.67%{-webkit-transform: scale(1, 1);transform: scale(1, 1);transform-box: fill-box;-webkit-transform-origin: 50% 50%;transform-origin: 50% 50%;}6.67%{-webkit-transform: scale(1, 0.6);transform: scale(1, 0.6);transform-box: fill-box;-webkit-transform-origin: 50% 50%;transform-origin: 50% 50%;}20%{-webkit-transform: scale(1, 0.85);transform: scale(1, 0.85);transform-box: fill-box;-webkit-transform-origin: 50% 50%;transform-origin: 50% 50%;}30%{-webkit-transform: scale(1, 0.9);transform: scale(1, 0.9);transform-box: fill-box;-webkit-transform-origin: 50% 50%;transform-origin: 50% 50%;}45%{-webkit-transform: scale(1, 1.3);transform: scale(1, 1.3);transform-box: fill-box;-webkit-transform-origin: 50% 50%;transform-origin: 50% 50%;}63.33%{-webkit-transform: scale(1, 1.2);transform: scale(1, 1.2);transform-box: fill-box;-webkit-transform-origin: 50% 50%;transform-origin: 50% 50%;}80%{-webkit-transform: scale(1, 0.8);transform: scale(1, 0.8);transform-box: fill-box;-webkit-transform-origin: 50% 50%;transform-origin: 50% 50%;}91.67%{-webkit-transform: scale(1, 1);transform: scale(1, 1);transform-box: fill-box;-webkit-transform-origin: 50% 50%;transform-origin: 50% 50%;}0%{-webkit-transform: scale(1, 1);transform: scale(1, 1);transform-box: fill-box;-webkit-transform-origin: 50% 50%;transform-origin: 50% 50%;}100%{-webkit-transform: scale(1, 1);transform: scale(1, 1);transform-box: fill-box;-webkit-transform-origin: 50% 50%;transform-origin: 50% 50%;}}@keyframes Sk8gmaDLrUz_rJ-FdUr8M_Animation{1.67%{-webkit-transform: scale(1, 1);transform: scale(1, 1);transform-box: fill-box;-webkit-transform-origin: 50% 50%;transform-origin: 50% 50%;}6.67%{-webkit-transform: scale(1, 0.6);transform: scale(1, 0.6);transform-box: fill-box;-webkit-transform-origin: 50% 50%;transform-origin: 50% 50%;}20%{-webkit-transform: scale(1, 0.85);transform: scale(1, 0.85);transform-box: fill-box;-webkit-transform-origin: 50% 50%;transform-origin: 50% 50%;}30%{-webkit-transform: scale(1, 0.9);transform: scale(1, 0.9);transform-box: fill-box;-webkit-transform-origin: 50% 50%;transform-origin: 50% 50%;}45%{-webkit-transform: scale(1, 1.3);transform: scale(1, 1.3);transform-box: fill-box;-webkit-transform-origin: 50% 50%;transform-origin: 50% 50%;}63.33%{-webkit-transform: scale(1, 1.2);transform: scale(1, 1.2);transform-box: fill-box;-webkit-transform-origin: 50% 50%;transform-origin: 50% 50%;}80%{-webkit-transform: scale(1, 0.8);transform: scale(1, 0.8);transform-box: fill-box;-webkit-transform-origin: 50% 50%;transform-origin: 50% 50%;}91.67%{-webkit-transform: scale(1, 1);transform: scale(1, 1);transform-box: fill-box;-webkit-transform-origin: 50% 50%;transform-origin: 50% 50%;}0%{-webkit-transform: scale(1, 1);transform: scale(1, 1);transform-box: fill-box;-webkit-transform-origin: 50% 50%;transform-origin: 50% 50%;}100%{-webkit-transform: scale(1, 1);transform: scale(1, 1);transform-box: fill-box;-webkit-transform-origin: 50% 50%;transform-origin: 50% 50%;}}@-webkit-keyframes r1ygm6wLBUG_SyemdUrIf_Animation{1.67%{-webkit-transform: scale(1, 1);transform: scale(1, 1);transform-box: fill-box;-webkit-transform-origin: 50% 50%;transform-origin: 50% 50%;}13.33%{-webkit-transform: scale(1.2, 1);transform: scale(1.2, 1);transform-box: fill-box;-webkit-transform-origin: 50% 50%;transform-origin: 50% 50%;}31.67%{-webkit-transform: scale(1.2, 1.4);transform: scale(1.2, 1.4);transform-box: fill-box;-webkit-transform-origin: 50% 50%;transform-origin: 50% 50%;}55.00%{-webkit-transform: scale(1, 0.8);transform: scale(1, 0.8);transform-box: fill-box;-webkit-transform-origin: 50% 50%;transform-origin: 50% 50%;}75%{-webkit-transform: scale(1, 1.2);transform: scale(1, 1.2);transform-box: fill-box;-webkit-transform-origin: 50% 50%;transform-origin: 50% 50%;}93.33%{-webkit-transform: scale(1, 1);transform: scale(1, 1);transform-box: fill-box;-webkit-transform-origin: 50% 50%;transform-origin: 50% 50%;}0%{-webkit-transform: scale(1, 1);transform: scale(1, 1);transform-box: fill-box;-webkit-transform-origin: 50% 50%;transform-origin: 50% 50%;}100%{-webkit-transform: scale(1, 1);transform: scale(1, 1);transform-box: fill-box;-webkit-transform-origin: 50% 50%;transform-origin: 50% 50%;}}@keyframes r1ygm6wLBUG_SyemdUrIf_Animation{1.67%{-webkit-transform: scale(1, 1);transform: scale(1, 1);transform-box: fill-box;-webkit-transform-origin: 50% 50%;transform-origin: 50% 50%;}13.33%{-webkit-transform: scale(1.2, 1);transform: scale(1.2, 1);transform-box: fill-box;-webkit-transform-origin: 50% 50%;transform-origin: 50% 50%;}31.67%{-webkit-transform: scale(1.2, 1.4);transform: scale(1.2, 1.4);transform-box: fill-box;-webkit-transform-origin: 50% 50%;transform-origin: 50% 50%;}55.00%{-webkit-transform: scale(1, 0.8);transform: scale(1, 0.8);transform-box: fill-box;-webkit-transform-origin: 50% 50%;transform-origin: 50% 50%;}75%{-webkit-transform: scale(1, 1.2);transform: scale(1, 1.2);transform-box: fill-box;-webkit-transform-origin: 50% 50%;transform-origin: 50% 50%;}93.33%{-webkit-transform: scale(1, 1);transform: scale(1, 1);transform-box: fill-box;-webkit-transform-origin: 50% 50%;transform-origin: 50% 50%;}0%{-webkit-transform: scale(1, 1);transform: scale(1, 1);transform-box: fill-box;-webkit-transform-origin: 50% 50%;transform-origin: 50% 50%;}100%{-webkit-transform: scale(1, 1);transform: scale(1, 1);transform-box: fill-box;-webkit-transform-origin: 50% 50%;transform-origin: 50% 50%;}}#HkA7aDLB8G *{-webkit-animation-duration: 2s;animation-duration: 2s;-webkit-animation-iteration-count: infinite;animation-iteration-count: infinite;-webkit-animation-timing-function: cubic-bezier(0, 0, 1, 1);animation-timing-function: cubic-bezier(0, 0, 1, 1);}#r1ygm6wLBUG{fill: #C7CFE2;}#rkxlm6DLr8G{fill: #AFB9D2;}#ryGgmavUSUM{fill: #959CB3;}#SJ7eQavISIz{fill: #959CB3;}#H1SgXpwUHUG{fill: #AFB9D2;}#Sk8gmaDLrUz{fill: #E4EAF6;}#S1vlmpDLBIz{fill: #AFB9D2;}#SJFxXTv8rIM{fill: #C7CFE2;}#B15gXTvUB8G{fill: #C7CFE2;}#S1oeXawLBLf{fill: #AFB9D2;}#Sy6lXavUBLG{fill: #C7CFE2;}#Bk0emTvLrIM{fill: #C7CFE2;}#rJJ-QTDISIz{fill: #E6AF78;}#rkgWmaPLrLM{fill: #EFF2FA;}#rk-W76PLrUf{fill: #D29B6E;}#SkG-XTD8rUz{fill: #F0C087;}#HJ7-76P8SIM{fill: #E6AF78;}#ByrZQavLBLG{fill: #E4EAF6;}#r18-Xaw8B8f{fill: #E4EAF6;}#S1D-7aD8BUf{fill: #5B5D6E;}#HyuW76DLSUM{fill: #515262;}#Sy9Z7aD8HIz{fill: #E4EAF6;}#SkoZ7avIrLz{fill: #E4EAF6;}#rkn-maDLSLz{fill: #785550;}#rk6-76wUrIM{fill: #F0C087;}#B1C-7aPISIM{fill: #694B4B;}#HkyMmTD8r8f{fill: #5A4146;}#r1ezXawIBIG{fill: #E6AF78;}#HJbG7TvUrLM{fill: #E4EAF6;}#B1zMQaD8S8z{fill: #694B4B;}#Bk7fXavLSLf{fill: #5A4146;}#SyEzmTwUSUf{fill: #694B4B;}#HJBG7avIHLM{fill: #785550;}#BkUf7av8HUM{fill: #E6AF78;}#B1PMXTPUBLz{fill: #B4E1FA;}#BJdGQaDIH8f{fill: #D29B6E;}#rJ9zQ6vUHIG{fill: #A0D2F0;}#ByjG76PUrIM{fill: #A0D2F0;}#BJ3GmTwLHLf{fill: #A0D2F0;}#ByTzXTvLSIM{fill: #A0D2F0;}#SyCGXpPUBUM{fill: #A0D2F0;}#H1Jm76vLrIz{fill: #F0C087;}#Hkl7mTvUSUf{fill: #E6AF78;}#r1-XQTwUBUf{fill: #A0D2F0;}#r1ygm6wLBUG_SyemdUrIf{-webkit-animation-name: r1ygm6wLBUG_SyemdUrIf_Animation;animation-name: r1ygm6wLBUG_SyemdUrIf_Animation;}#Sk8gmaDLrUz_rJ-FdUr8M{-webkit-animation-name: Sk8gmaDLrUz_rJ-FdUr8M_Animation;animation-name: Sk8gmaDLrUz_rJ-FdUr8M_Animation;}
    </style>
    <g id="r1ygm6wLBUG_SyemdUrIf" data-animator-group="true">
        <path d="M247.173,35.31h211.862c19.421,0,35.31,15.89,35.31,35.31v123.586c0,19.421-15.89,35.31-35.31,35.31&#10;&#9;H344.276v33.482c0,3.933-4.755,5.901-7.534,3.121l-36.604-36.602h-52.966c-19.421,0-35.31-15.89-35.31-35.31V70.621&#10;&#9;C211.863,51.2,227.752,35.31,247.173,35.31z" id="r1ygm6wLBUG" class=""/>
    </g>
    <path d="M449.906,105.931H317.794V88.276h70.321c4.701,0,8.804-3.548,9.109-8.238&#10;&#9;c0.333-5.141-3.734-9.417-8.809-9.417h-70.621V35.31h-17.655c0,0,0,116.19,0,123.586c0,19.421-15.89,35.31-35.31,35.31h-52.966&#10;&#9;c0,6.452,1.88,12.436,4.935,17.655h48.031c29.205,0,52.966-23.761,52.966-52.966h35.037c4.424,0,8.377-3.138,9.007-7.518&#10;&#9;c0.783-5.457-3.423-10.137-8.734-10.137h-35.31v-17.655h132.414c5.075,0,9.142-4.275,8.809-9.417&#10;&#9;C458.712,109.479,454.608,105.931,449.906,105.931z" id="rkxlm6DLr8G"/>
    <g id="HkZlXTw8SIG">
        <path d="M450.207,88.276h-26.483c-4.879,0-8.828-3.953-8.828-8.828c0-4.875,3.948-8.828,8.828-8.828h26.483&#10;&#9;&#9;c4.879,0,8.828,3.953,8.828,8.828C459.035,84.323,455.087,88.276,450.207,88.276z" id="ryGgmavUSUM"/>
        <path d="M450.207,158.897h-61.793c-4.879,0-8.828-3.953-8.828-8.828c0-4.875,3.948-8.828,8.828-8.828h61.793&#10;&#9;&#9;c4.879,0,8.828,3.953,8.828,8.828C459.035,154.944,455.087,158.897,450.207,158.897z" id="SJ7eQavISIz"/>
    </g>
    <g id="SyEgX6PLr8z">
        <path d="M450.207,194.207H326.621c-4.879,0-8.828-3.953-8.828-8.828c0-4.875,3.948-8.828,8.828-8.828&#10;&#9;&#9;h123.586c4.879,0,8.828,3.953,8.828,8.828C459.035,190.254,455.087,194.207,450.207,194.207z" id="H1SgXpwUHUG"/>
    </g>
    <g id="Sk8gmaDLrUz_rJ-FdUr8M" data-animator-group="true">
        <path d="M264.828,0H52.966c-19.421,0-35.31,15.89-35.31,35.31v123.586c0,19.421,15.89,35.31,35.31,35.31&#10;&#9;h114.759v33.482c0,3.933,4.755,5.901,7.534,3.121l36.604-36.602h52.966c19.421,0,35.31-15.89,35.31-35.31V35.31&#10;&#9;C300.138,15.89,284.249,0,264.828,0z" id="Sk8gmaDLrUz"/>
    </g>
    <path d="M88.276,52.966H61.794c-4.879,0-8.828-3.953-8.828-8.828s3.948-8.828,8.828-8.828h26.483&#10;&#9;c4.879,0,8.828,3.953,8.828,8.828S93.156,52.966,88.276,52.966z" id="S1vlmpDLBIz"/>
    <g id="BkOgm6DIBLz">
        <path d="M256.001,52.966H123.587c-4.879,0-8.828-3.953-8.828-8.828s3.948-8.828,8.828-8.828h132.414&#10;&#9;&#9;c4.879,0,8.828,3.953,8.828,8.828S260.88,52.966,256.001,52.966z" id="SJFxXTv8rIM"/>
        <path d="M256.001,88.276H61.794c-4.879,0-8.828-3.953-8.828-8.828c0-4.875,3.948-8.828,8.828-8.828h194.207&#10;&#9;&#9;c4.879,0,8.828,3.953,8.828,8.828C264.828,84.323,260.88,88.276,256.001,88.276z" id="B15gXTvUB8G"/>
    </g>
    <path d="M256.001,123.586h-26.483c-4.879,0-8.828-3.953-8.828-8.828c0-4.875,3.948-8.828,8.828-8.828h26.483&#10;&#9;c4.879,0,8.828,3.953,8.828,8.828C264.828,119.634,260.88,123.586,256.001,123.586z" id="S1oeXawLBLf"/>
    <g id="Bk3xQ6w8HLM">
        <path d="M194.207,123.586H61.794c-4.879,0-8.828-3.953-8.828-8.828c0-4.875,3.948-8.828,8.828-8.828h132.414&#10;&#9;&#9;c4.879,0,8.828,3.953,8.828,8.828C203.035,119.634,199.087,123.586,194.207,123.586z" id="Sy6lXavUBLG"/>
        <path d="M256.001,158.897H61.794c-4.879,0-8.828-3.953-8.828-8.828c0-4.875,3.948-8.828,8.828-8.828h194.207&#10;&#9;&#9;c4.879,0,8.828,3.953,8.828,8.828C264.828,154.944,260.88,158.897,256.001,158.897z" id="Bk0emTvLrIM"/>
    </g>
    <polygon points="169.083,442.738 169.083,414.218 95.746,414.218 95.746,442.738 132.414,475.331 " id="rJJ-QTDISIz"/>
    <path d="M225.78,456.078l-50.415-11.862c-0.761-0.179-1.462-0.483-2.116-0.852l-40.834,23.818L93.172,442.21&#10;&#9;c-1.016,0.957-2.276,1.667-3.709,2.004l-50.415,11.862c-7.362,1.734-12.565,8.303-12.565,15.865v31.91&#10;&#9;c0,4.5,3.648,8.149,8.149,8.149h195.565c4.5,0,8.149-3.648,8.149-8.149v-31.91C238.345,464.38,233.143,457.81,225.78,456.078z" id="rkgWmaPLrLM"/>
    <path d="M95.746,414.218v30.091c46.193,16.642,73.337-25.01,73.337-25.01v-5.081L95.746,414.218&#10;&#9;L95.746,414.218z" id="rk-W76PLrUf"/>
    <path d="M79.449,320.509L83,398.618c0.332,7.297,3.91,14.063,9.753,18.446l16.846,12.634&#10;&#9;c4.232,3.174,9.378,4.889,14.667,4.889h16.297c5.289,0,10.436-1.716,14.667-4.889l16.846-12.634&#10;&#9;c5.844-4.383,9.421-11.149,9.753-18.446l3.55-78.11H79.449z" id="SkG-XTD8rUz"/>
    <path d="M120.191,336.807c16.297,0,40.743-4.074,46.541-16.297H79.449l3.55,78.11&#10;&#9;c0.332,7.297,3.91,14.063,9.753,18.446l16.846,12.635c4.232,3.174,9.378,4.889,14.667,4.889h8.149&#10;&#9;c-8.149,0-24.446-16.297-24.446-36.669c0-9.963,0-36.669,0-48.892C107.969,344.954,112.042,336.807,120.191,336.807z" id="HJ7-76P8SIM"/>
    <g id="r14WmpvUH8z">
        <path d="M208.435,485.558l26.401-23.716c2.212,2.802,3.51,6.326,3.51,10.1v31.91&#10;&#9;&#9;c0,4.5-3.648,8.149-8.149,8.149h-28.52v-11.287C201.677,494.931,204.134,489.421,208.435,485.558z" id="ByrZQavLBLG"/>
        <path d="M56.393,485.558l-26.401-23.716c-2.212,2.802-3.51,6.326-3.51,10.1v31.91&#10;&#9;&#9;c0,4.5,3.648,8.149,8.149,8.149h28.52v-11.287C63.152,494.931,60.695,489.421,56.393,485.558z" id="r18-Xaw8B8f"/>
    </g>
    <polygon points="142.6,512 122.228,512 124.775,475.331 140.054,475.331 " id="S1D-7aD8BUf"/>
    <path d="M142.6,467.182h-20.372v2.354c0,5.451,4.418,9.869,9.869,9.869h0.632&#10;&#9;c5.451,0,9.869-4.418,9.869-9.869v-2.354H142.6z" id="HyuW76DLSUM"/>
    <g id="ryF-QpvIHLz">
        <path d="M95.174,433.666l37.24,33.516c0,0-10.43,5.265-23.3,15.876c-2.655,2.189-6.671,1.302-8.095-1.831&#10;&#9;&#9;l-17.496-38.492l5.535-8.302C90.436,432.367,93.327,432.004,95.174,433.666z" id="Sy9Z7aD8HIz"/>
        <path d="M169.655,433.666l-37.24,33.516c0,0,10.43,5.265,23.3,15.876c2.655,2.189,6.671,1.302,8.095-1.831&#10;&#9;&#9;l17.496-38.492l-5.535-8.302C174.393,432.367,171.502,432.004,169.655,433.666z" id="SkoZ7avIrLz"/>
    </g>
    <path d="M157.115,293.517l3.82,26.993c17.436,3.487,19.948,30.849,20.31,38.665&#10;&#9;c0.066,1.418,0.519,2.788,1.288,3.981l6.653,10.319c0,0-2.278-17.062,8.149-28.52C197.334,344.954,200.913,277.22,157.115,293.517z" id="rkn-maDLSLz"/>
    <path d="M193.273,371.731l-4.601,18.404c-0.545,2.18-2.505,3.71-4.753,3.71l0,0&#10;&#9;c-2.471,0-4.554-1.839-4.861-4.29l-2.353-18.824c-0.629-5.034,3.296-9.48,8.369-9.48h0.017&#10;&#9;C190.577,361.252,194.604,366.408,193.273,371.731z" id="rk6-76wUrIM"/>
    <path d="M83.353,286.218l6.027,4.116c-27.246,20.117-22.154,54.621-22.154,54.621&#10;&#9;c8.149,8.149,8.149,28.52,8.149,28.52l8.149-8.149c0,0-3.145-23.539,12.223-32.594c14.26-8.403,26.738-4.074,39.469-4.074&#10;&#9;c34.122,0,43.671-12.86,42.016-28.52c-0.856-8.104-13.246-24.982-44.817-24.446C119.673,275.908,95.746,279.766,83.353,286.218z" id="B1C-7aPISIM"/>
    <path d="M80.977,325.092c0,0-4.329-17.062,8.403-34.759c-27.246,20.117-22.154,54.621-22.154,54.621&#10;&#9;c8.149,8.149,8.149,28.52,8.149,28.52l8.149-8.149c0,0-3.145-23.539,12.223-32.594c14.26-8.403,26.738-4.074,39.469-4.074&#10;&#9;c5.549,0,10.386-0.372,14.692-1.009C123.629,328.531,108.138,308.626,80.977,325.092z" id="HkyMmTD8r8f"/>
    <path d="M71.556,371.731l4.601,18.404c0.545,2.18,2.505,3.71,4.753,3.71l0,0c2.471,0,4.554-1.839,4.861-4.29&#10;&#9;l2.353-18.824c0.629-5.034-3.296-9.48-8.369-9.48h-0.017C74.252,361.252,70.225,366.408,71.556,371.731z" id="r1ezXawIBIG"/>
    <path d="M181.306,503.851h-20.372c-4.5,0-8.149,3.648-8.149,8.149l0,0h36.669l0,0&#10;&#9;C189.454,507.499,185.806,503.851,181.306,503.851z" id="HJbG7TvUrLM"/>
    <path d="M361.932,278.328c-82.191,0-73.078,99.95-72.703,172.382c0.014,2.735,1.447,5.202,3.79,6.614&#10;&#9;c9.108,5.491,34.121,18.327,68.913,18.327s59.805-12.836,68.913-18.327c2.343-1.412,3.776-3.879,3.79-6.614&#10;&#9;C435.01,378.28,444.123,278.328,361.932,278.328z" id="B1zMQaD8S8z"/>
    <path d="M356.636,278.535c-76.441,4.286-67.774,101.356-67.407,172.175c0.014,2.735,1.447,5.202,3.79,6.614&#10;&#9;c9.108,5.491,34.121,18.327,68.913,18.327l20.771-145.396" id="Bk7fXavLSLf"/>
    <path d="M361.932,278.328c-46.734,0-49.98,56.47-49.98,56.47c26.937-4.544,43.489,6.815,70.751-4.544&#10;&#9;l-20.771,145.397c34.793,0,59.805-12.836,68.913-18.327c2.343-1.412,3.776-3.879,3.79-6.614&#10;&#9;C435.01,378.28,444.123,278.328,361.932,278.328z" id="SyEzmTwUSUf"/>
    <path d="M434.634,450.71c0.322-62.239,7.041-144.738-43.209-166.74c-0.876,4.553-2.464,17.263,1.662,25.514&#10;&#9;c10.386,20.771,20.771,20.771,31.156,36.349c10.386,57.12-19.843,117.746-29.884,125.999l0,0&#10;&#9;c17.789-4.231,30.54-10.925,36.484-14.508C433.187,455.912,434.62,453.446,434.634,450.71z" id="HJBG7avIHLM"/>
    <path d="M440.621,466.464l-46.335-19.306c-3.87-1.612-6.391-5.394-6.391-9.587v-12.548h-51.927v12.548&#10;&#9;c0,4.193-2.521,7.975-6.391,9.587l-46.335,19.306c-5.805,2.419-9.587,8.09-9.587,14.38v20.771c0,5.736,4.65,10.386,10.386,10.386&#10;&#9;h155.78c5.736,0,10.386-4.65,10.386-10.386v-20.771C450.207,474.554,446.426,468.883,440.621,466.464z" id="BkUf7av8HUM"/>
    <path d="M440.621,466.464l-44.8-18.667l-33.889,14.626l-33.889-14.626l-44.8,18.667&#10;&#9;c-5.805,2.419-9.587,8.09-9.587,14.38v20.771c0,5.736,4.65,10.386,10.386,10.386h155.78c5.736,0,10.386-4.65,10.386-10.386v-20.771&#10;&#9;C450.207,474.554,446.426,468.883,440.621,466.464z" id="B1PMXTPUBLz"/>
    <path d="M387.895,425.022h-51.927v12.548c0,4.193-2.521,7.975-6.391,9.587l-7.236,3.016&#10;&#9;C377.72,464.294,387.895,425.022,387.895,425.022z" id="BJdGQaDIH8f"/>
    <g id="rJFzQTvLBUM">
        <path d="M298.966,486.552l-20.843-16.579c-2.793,2.856-4.467,6.718-4.467,10.871v20.771&#10;&#9;&#9;c0,5.736,4.65,10.386,10.386,10.386h20.771v-13.283C304.812,493.984,302.661,489.508,298.966,486.552z" id="rJ9zQ6vUHIG"/>
        <path d="M450.207,501.614v-20.771c0-4.121-1.646-7.957-4.399-10.806l-20.91,16.514&#10;&#9;&#9;c-3.695,2.956-5.846,7.432-5.846,12.164V512h20.771C445.558,512,450.207,507.35,450.207,501.614z" id="ByjG76PUrIM"/>
        <path d="M362.711,501.614h-1.558c-2.438,0-4.414-1.976-4.414-4.414v-34.765h10.386v34.765&#10;&#9;&#9;C367.124,499.638,365.148,501.614,362.711,501.614z" id="BJ3GmTwLHLf"/>
        <path d="M361.932,462.423l-29.72-22.29c-1.908-1.431-4.626-0.966-5.949,1.018l-5.873,8.809l18.221,25.51&#10;&#9;&#9;c1.385,1.939,4.115,2.318,5.975,0.83L361.932,462.423z" id="ByTzXTvLSIM"/>
        <path d="M361.932,462.423l29.72-22.29c1.908-1.431,4.626-0.966,5.949,1.018l5.873,8.809l-18.221,25.51&#10;&#9;&#9;c-1.385,1.939-4.115,2.318-5.975,0.83L361.932,462.423z" id="SyCGXpPUBUM"/>
    </g>
    <path d="M387.895,325.063c-25.963,25.963-76.917,5.193-76.917,46.734l3.224,30.6&#10;&#9;c0.622,6.845,4.59,12.939,10.598,16.277l29.566,16.425c4.705,2.614,10.425,2.614,15.13,0l29.566-16.425&#10;&#9;c6.008-3.338,9.976-9.432,10.598-16.277l3.722-36.342c0.265-2.583,0.321-5.182,0.234-7.774&#10;&#9;C411.674,345.063,393.087,335.448,387.895,325.063z" id="H1Jm76vLrIz"/>
    <path d="M310.978,371.797l3.224,30.6c0.622,6.845,4.59,12.939,10.598,16.277l29.566,16.425&#10;&#9;c3.265,1.814,7.009,2.283,10.573,1.58l0,0c0,0-14.906-4.518-23.778-28.533c-2.718-7.357-6.49-46.302-3.245-51.062&#10;&#9;c6.415-9.408,42.19-10.386,52.761-27.839c-0.522-0.648-1.004-1.297-1.444-1.947c-0.035-0.052-0.078-0.105-0.114-0.158&#10;&#9;c-0.459-0.691-0.875-1.383-1.224-2.078C361.932,351.027,310.978,330.255,310.978,371.797z" id="Hkl7mTvUSUf"/>
    <path d="M399.838,501.614h-13.501c-4.875,0-8.828,3.953-8.828,8.828V512h31.156v-1.558&#10;&#9;C408.666,505.567,404.713,501.614,399.838,501.614z" id="r1-XQTwUBUf"/>
    <g id="r1MQmpwUSUM">
    </g>
    <g id="H1m7XaDUSLM">
    </g>
    <g id="ryE77avIHLz">
    </g>
    <g id="ryBXXTPLH8z">
    </g>
    <g id="SyIX7TvUr8G">
    </g>
    <g id="SyvQmTvLSIz">
    </g>
    <g id="SyuXmawLH8M">
    </g>
    <g id="HJFQmpDUBUM">
    </g>
    <g id="BJ5m7pvLSLf">
    </g>
    <g id="Ski7mpP8B8G">
    </g>
    <g id="Hk3XmpPUrLG">
    </g>
    <g id="rk6Q7avISUM">
    </g>
    <g id="rkR7QTvIr8z">
    </g>
    <g id="HyyNXTP8rIz">
    </g>
    <g id="SkeVmTw8BUG">
    </g>
</svg>