<svg version="1.1" id="rkYFT7PHLM" xmlns="http://www.w3.org/2000/svg" xmlns:xlink="http://www.w3.org/1999/xlink" x="0px" y="0px" viewBox="0 0 512 512" style="enable-background:new 0 0 512 512;" xmlns:svgjs="http://svgjs.com/svgjs">
    <style type="text/css">
        @-webkit-keyframes BJj-Y6XwSLf_HJ2ODPHLM_Animation{1.67%{-webkit-transform: rotate(0deg);transform: rotate(0deg);transform-box: fill-box;-webkit-transform-origin: 50% 50%;transform-origin: 50% 50%;}13.33%{-webkit-transform: rotate(1deg);transform: rotate(1deg);transform-box: fill-box;-webkit-transform-origin: 50% 50%;transform-origin: 50% 50%;}25%{-webkit-transform: rotate(3deg);transform: rotate(3deg);transform-box: fill-box;-webkit-transform-origin: 50% 50%;transform-origin: 50% 50%;}30%{-webkit-transform: rotate(0deg);transform: rotate(0deg);transform-box: fill-box;-webkit-transform-origin: 50% 50%;transform-origin: 50% 50%;}45%{-webkit-transform: rotate(-1deg);transform: rotate(-1deg);transform-box: fill-box;-webkit-transform-origin: 50% 50%;transform-origin: 50% 50%;}66.67%{-webkit-transform: rotate(-3deg);transform: rotate(-3deg);transform-box: fill-box;-webkit-transform-origin: 50% 50%;transform-origin: 50% 50%;}81.67%{-webkit-transform: rotate(0deg);transform: rotate(0deg);transform-box: fill-box;-webkit-transform-origin: 50% 50%;transform-origin: 50% 50%;}0%{-webkit-transform: rotate(0deg);transform: rotate(0deg);transform-box: fill-box;-webkit-transform-origin: 50% 50%;transform-origin: 50% 50%;}100%{-webkit-transform: rotate(0deg);transform: rotate(0deg);transform-box: fill-box;-webkit-transform-origin: 50% 50%;transform-origin: 50% 50%;}}@keyframes BJj-Y6XwSLf_HJ2ODPHLM_Animation{1.67%{-webkit-transform: rotate(0deg);transform: rotate(0deg);transform-box: fill-box;-webkit-transform-origin: 50% 50%;transform-origin: 50% 50%;}13.33%{-webkit-transform: rotate(1deg);transform: rotate(1deg);transform-box: fill-box;-webkit-transform-origin: 50% 50%;transform-origin: 50% 50%;}25%{-webkit-transform: rotate(3deg);transform: rotate(3deg);transform-box: fill-box;-webkit-transform-origin: 50% 50%;transform-origin: 50% 50%;}30%{-webkit-transform: rotate(0deg);transform: rotate(0deg);transform-box: fill-box;-webkit-transform-origin: 50% 50%;transform-origin: 50% 50%;}45%{-webkit-transform: rotate(-1deg);transform: rotate(-1deg);transform-box: fill-box;-webkit-transform-origin: 50% 50%;transform-origin: 50% 50%;}66.67%{-webkit-transform: rotate(-3deg);transform: rotate(-3deg);transform-box: fill-box;-webkit-transform-origin: 50% 50%;transform-origin: 50% 50%;}81.67%{-webkit-transform: rotate(0deg);transform: rotate(0deg);transform-box: fill-box;-webkit-transform-origin: 50% 50%;transform-origin: 50% 50%;}0%{-webkit-transform: rotate(0deg);transform: rotate(0deg);transform-box: fill-box;-webkit-transform-origin: 50% 50%;transform-origin: 50% 50%;}100%{-webkit-transform: rotate(0deg);transform: rotate(0deg);transform-box: fill-box;-webkit-transform-origin: 50% 50%;transform-origin: 50% 50%;}}@-webkit-keyframes BJ3bFpXPrIM_SydEPvSLf_Animation{0%{-webkit-transform: rotate(0deg);transform: rotate(0deg);transform-box: fill-box;-webkit-transform-origin: 50% 50%;transform-origin: 50% 50%;}13.33%{-webkit-transform: rotate(2deg);transform: rotate(2deg);transform-box: fill-box;-webkit-transform-origin: 50% 50%;transform-origin: 50% 50%;}23.33%{-webkit-transform: rotate(2deg);transform: rotate(2deg);transform-box: fill-box;-webkit-transform-origin: 50% 50%;transform-origin: 50% 50%;}30%{-webkit-transform: rotate(0deg);transform: rotate(0deg);transform-box: fill-box;-webkit-transform-origin: 50% 50%;transform-origin: 50% 50%;}58.33%{-webkit-transform: rotate(-2deg);transform: rotate(-2deg);transform-box: fill-box;-webkit-transform-origin: 50% 50%;transform-origin: 50% 50%;}85%{-webkit-transform: rotate(0deg);transform: rotate(0deg);transform-box: fill-box;-webkit-transform-origin: 50% 50%;transform-origin: 50% 50%;}100%{-webkit-transform: rotate(0deg);transform: rotate(0deg);transform-box: fill-box;-webkit-transform-origin: 50% 50%;transform-origin: 50% 50%;}}@keyframes BJ3bFpXPrIM_SydEPvSLf_Animation{0%{-webkit-transform: rotate(0deg);transform: rotate(0deg);transform-box: fill-box;-webkit-transform-origin: 50% 50%;transform-origin: 50% 50%;}13.33%{-webkit-transform: rotate(2deg);transform: rotate(2deg);transform-box: fill-box;-webkit-transform-origin: 50% 50%;transform-origin: 50% 50%;}23.33%{-webkit-transform: rotate(2deg);transform: rotate(2deg);transform-box: fill-box;-webkit-transform-origin: 50% 50%;transform-origin: 50% 50%;}30%{-webkit-transform: rotate(0deg);transform: rotate(0deg);transform-box: fill-box;-webkit-transform-origin: 50% 50%;transform-origin: 50% 50%;}58.33%{-webkit-transform: rotate(-2deg);transform: rotate(-2deg);transform-box: fill-box;-webkit-transform-origin: 50% 50%;transform-origin: 50% 50%;}85%{-webkit-transform: rotate(0deg);transform: rotate(0deg);transform-box: fill-box;-webkit-transform-origin: 50% 50%;transform-origin: 50% 50%;}100%{-webkit-transform: rotate(0deg);transform: rotate(0deg);transform-box: fill-box;-webkit-transform-origin: 50% 50%;transform-origin: 50% 50%;}}@-webkit-keyframes By6bFa7PH8f_HkaWDvBIf_Animation{0%{-webkit-transform: rotate(0deg);transform: rotate(0deg);transform-box: fill-box;-webkit-transform-origin: 50% 50%;transform-origin: 50% 50%;}13.33%{-webkit-transform: rotate(4deg);transform: rotate(4deg);transform-box: fill-box;-webkit-transform-origin: 50% 50%;transform-origin: 50% 50%;}31.67%{-webkit-transform: rotate(0deg);transform: rotate(0deg);transform-box: fill-box;-webkit-transform-origin: 50% 50%;transform-origin: 50% 50%;}60%{-webkit-transform: rotate(3deg);transform: rotate(3deg);transform-box: fill-box;-webkit-transform-origin: 50% 50%;transform-origin: 50% 50%;}85%{-webkit-transform: rotate(0deg);transform: rotate(0deg);transform-box: fill-box;-webkit-transform-origin: 50% 50%;transform-origin: 50% 50%;}100%{-webkit-transform: rotate(0deg);transform: rotate(0deg);transform-box: fill-box;-webkit-transform-origin: 50% 50%;transform-origin: 50% 50%;}}@keyframes By6bFa7PH8f_HkaWDvBIf_Animation{0%{-webkit-transform: rotate(0deg);transform: rotate(0deg);transform-box: fill-box;-webkit-transform-origin: 50% 50%;transform-origin: 50% 50%;}13.33%{-webkit-transform: rotate(4deg);transform: rotate(4deg);transform-box: fill-box;-webkit-transform-origin: 50% 50%;transform-origin: 50% 50%;}31.67%{-webkit-transform: rotate(0deg);transform: rotate(0deg);transform-box: fill-box;-webkit-transform-origin: 50% 50%;transform-origin: 50% 50%;}60%{-webkit-transform: rotate(3deg);transform: rotate(3deg);transform-box: fill-box;-webkit-transform-origin: 50% 50%;transform-origin: 50% 50%;}85%{-webkit-transform: rotate(0deg);transform: rotate(0deg);transform-box: fill-box;-webkit-transform-origin: 50% 50%;transform-origin: 50% 50%;}100%{-webkit-transform: rotate(0deg);transform: rotate(0deg);transform-box: fill-box;-webkit-transform-origin: 50% 50%;transform-origin: 50% 50%;}}#rkYFT7PHLM *{-webkit-animation-duration: 2s;animation-duration: 2s;-webkit-animation-iteration-count: infinite;animation-iteration-count: infinite;-webkit-animation-timing-function: cubic-bezier(0, 0, 1, 1);animation-timing-function: cubic-bezier(0, 0, 1, 1);}#Sk9KaQPSIf{fill: #49C9FF;}#ByoYT7DBUz{fill: #2DADE3;}#HJhY6XPBIf{fill: #9DB55F;}#Hk6FTXvSLG{fill: #85453D;}#ryRKpXwrLM{fill: #A45E43;}#ByJgtTmvBLz{fill: #B9D171;}#r1xxta7wS8G{fill: #2DADE3;}#SkZltpQDrUz{fill: #49C9FF;}#BJfgFamDSLG{fill: #FFCB63;}#BkXgKamDSIf{fill: #FFA754;}#H14eFTXDHLz{fill: #2DADE3;}#r1HeYTQvSIz{fill: #FF8D7E;}#Hk8xFp7PrLM{fill: #FFB4A9;}#r1wgtTQDBIz{fill: #49C9FF;}#r1_eK67DrUz{fill: #FFA754;}#HyFxFaXwSIf{fill: #FFCB63;}#BkqxtpXPrUf{fill: #116F97;}#HJseYpQDHUf{fill: #084F6D;}#BynlYpmDBIM{fill: #FFA754;}#ByTgY67PHIf{fill: #C27749;}#SyCetaXvrLz{fill: #E18F4E;}#Sk1-KaXDr8G{fill: #FFCB63;}#S1g-KT7Dr8M{fill: #084F6D;}#SyZbt6XwSLf{fill: #116F97;}#rkf-K6XvBLG{fill: #B9D171;}#B1XWtTQvHUG{fill: #9DB55F;}#HJEZYp7vHIz{fill: #A8E5FF;}#HJSZtpXvSLG{fill: #FFB4A9;}#HkUWYamPHUf{fill: #FFD9D4;}#SJPbFa7Pr8G{fill: #DBF4FF;}#Hkd-FaXPHUM{fill: #9DB55F;}#ByKZK6QwH8M{fill: #B9D171;}#HJqbYa7vSLf{fill: #9DB55F;}#BJj-Y6XwSLf{fill: #2DADE3;}#BJ3bFpXPrIM{fill: #FFA754;}#By6bFa7PH8f{fill: #A8E5FF;}#SJCZYTmPHLM{fill: #60312C;}#HkJfFa7DrIG{fill: #85453D;}#HJgGFTmwSLM{fill: #FFE2A8;}#HJWfK6XDHIM{fill: #FFF0D3;}#By6bFa7PH8f_HkaWDvBIf{-webkit-animation-name: By6bFa7PH8f_HkaWDvBIf_Animation;animation-name: By6bFa7PH8f_HkaWDvBIf_Animation;}#BJ3bFpXPrIM_SydEPvSLf{-webkit-animation-name: BJ3bFpXPrIM_SydEPvSLf_Animation;animation-name: BJ3bFpXPrIM_SydEPvSLf_Animation;}#BJj-Y6XwSLf_HJ2ODPHLM{-webkit-animation-name: BJj-Y6XwSLf_HJ2ODPHLM_Animation;animation-name: BJj-Y6XwSLf_HJ2ODPHLM_Animation;}
    </style>
    <path d="M410.255,477.25c0,4.142,3.358,7.5,7.5,7.5s7.5-3.358,7.5-7.5V325.12h-15V477.25z" id="Sk9KaQPSIf" class=""/>
    <path d="M459.505,325.12v152.13c0,4.142,3.358,7.5,7.5,7.5s7.5-3.358,7.5-7.5V325.12H459.505z" id="ByoYT7DBUz"/>
    <polygon points="474.505,237.25 474.505,317.25 434.505,327.25 454.505,237.25 " id="HJhY6XPBIf"/>
    <path d="M442.375,147.25v60c16.57,0,30-13.43,30-30S458.945,147.25,442.375,147.25z" id="Hk6FTXvSLG"/>
    <path d="M442.375,147.25c5.53,0,10,13.43,10,30s-4.47,30-10,30c-16.56,0-30-13.43-30-30&#10;&#9;S425.815,147.25,442.375,147.25z" id="ryRKpXwrLM"/>
    <polygon points="454.505,237.25 454.505,327.25 410.255,317.25 410.255,237.25 " id="ByJgtTmvBLz"/>
    <path d="M454.505,317.25l-12.13,40c17.75,0,32.13-14.38,32.13-32.13v-7.87H454.505z" id="r1xxta7wS8G"/>
    <path d="M454.505,317.25v7.87c0,17.75-5.43,32.13-12.13,32.13c-17.74,0-32.12-14.38-32.12-32.13v-7.87&#10;&#9;H454.505z" id="SkZltpQDrUz"/>
    <path d="M286.005,477.25c0,4.142,3.358,7.5,7.5,7.5s7.5-3.358,7.5-7.5V325.12h-15V477.25z" id="BJfgFamDSLG"/>
    <path d="M335.255,477.25c0,4.142,3.358,7.5,7.5,7.5s7.5-3.358,7.5-7.5V325.12h-15V477.25z" id="BkXgKamDSIf"/>
    <polygon points="350.255,237.25 350.255,317.25 310.255,327.25 330.255,237.25 " id="H14eFTXDHLz"/>
    <path d="M318.125,147.25v60c16.57,0,30-13.43,30-30S334.695,147.25,318.125,147.25z" id="r1HeYTQvSIz"/>
    <path d="M318.125,147.25c5.53,0,10,13.43,10,30s-4.47,30-10,30c-16.56,0-30-13.43-30-30&#10;&#9;S301.565,147.25,318.125,147.25z" id="Hk8xFp7PrLM"/>
    <polygon points="330.255,237.25 330.255,327.25 286.005,317.25 286.005,237.25 " id="r1wgtTQDBIz"/>
    <path d="M330.255,317.25l-12.13,40c17.75,0,32.13-14.38,32.13-32.13v-7.87H330.255z" id="r1_eK67DrUz"/>
    <path d="M330.255,317.25v7.87c0,17.75-5.43,32.13-12.13,32.13c-17.74,0-32.12-14.38-32.12-32.13v-7.87&#10;&#9;H330.255z" id="HyFxFaXwSIf"/>
    <path d="M161.755,477.25c0,4.142,3.357,7.5,7.5,7.5c4.142,0,7.5-3.358,7.5-7.5l0.005-152.13h-15&#10;&#9;L161.755,477.25z" id="BkqxtpXPrUf"/>
    <path d="M211,477.25c0,4.142,3.357,7.5,7.5,7.5c4.142,0,7.5-3.358,7.5-7.5l0.005-152.13h-15L211,477.25z" id="HJseYpQDHUf"/>
    <polygon points="226.005,237.25 226.005,317.25 186.005,327.25 206.005,237.25 " id="BynlYpmDBIM"/>
    <path d="M193.875,147.25v60c16.57,0,30-13.43,30-30S210.445,147.25,193.875,147.25z" id="ByTgY67PHIf"/>
    <path d="M193.875,147.25c5.53,0,10,13.43,10,30s-4.47,30-10,30c-16.56,0-30-13.43-30-30&#10;&#9;S177.315,147.25,193.875,147.25z" id="SyCetaXvrLz"/>
    <polygon points="206.005,237.25 206.005,327.25 161.755,317.25 161.755,237.25 " id="Sk1-KaXDr8G"/>
    <path d="M206.005,317.25l-12.13,40c17.75,0,32.13-14.38,32.13-32.13v-7.87H206.005z" id="S1g-KT7Dr8M"/>
    <path d="M206.005,317.25v7.87c0,17.75-5.43,32.13-12.13,32.13c-17.74,0-32.12-14.38-32.12-32.13v-7.87&#10;&#9;H206.005z" id="SyZbt6XwSLf"/>
    <path d="M37.5,477.25c0,4.142,3.358,7.5,7.5,7.5s7.5-3.358,7.5-7.5V325.12h-15V477.25z" id="rkf-K6XvBLG"/>
    <path d="M86.75,477.25c0,4.142,3.358,7.5,7.5,7.5s7.5-3.358,7.5-7.5V325.12h-15V477.25z" id="B1XWtTQvHUG"/>
    <polygon points="101.75,237.25 101.75,317.25 61.75,327.25 81.75,237.25 " id="HJEZYp7vHIz"/>
    <path d="M69.62,147.25v60c16.57,0,30-13.43,30-30S86.19,147.25,69.62,147.25z" id="HJSZtpXvSLG"/>
    <path d="M69.62,147.25c5.53,0,10,13.43,10,30s-4.47,30-10,30c-16.56,0-30-13.43-30-30&#10;&#9;S53.06,147.25,69.62,147.25z" id="HkUWYamPHUf"/>
    <polygon points="81.75,237.25 81.75,327.25 37.5,317.25 37.5,237.25 " id="SJPbFa7Pr8G"/>
    <path d="M81.75,317.25l-12.13,40c17.75,0,32.13-14.38,32.13-32.13v-7.87H81.75z" id="Hkd-FaXPHUM"/>
    <path d="M81.75,317.25v7.87c0,17.75-5.43,32.13-12.13,32.13c-17.74,0-32.12-14.38-32.12-32.13v-7.87H81.75z" id="ByKZK6QwH8M"/>
    <path d="M387.75,207.25c0,12.406,10.094,22.5,22.5,22.5h64.25c20.678,0,37.5,16.822,37.5,37.5v82.5&#10;&#9;c0,4.143-3.357,7.5-7.5,7.5s-7.5-3.357-7.5-7.5v-82.5c0-12.406-10.094-22.5-22.5-22.5h-64.25c-20.678,0-37.5-16.822-37.5-37.5&#10;&#9;C372.75,203.107,387.75,203.107,387.75,207.25z" id="HJqbYa7vSLf"/>
    <g id="BJj-Y6XwSLf_HJ2ODPHLM" data-animator-group="true">
        <path d="M263.5,207.25c0,12.406,10.094,22.5,22.5,22.5h64.25c12.406,0,22.5-10.094,22.5-22.5v-90&#10;&#9;c0-4.143,3.357-7.5,7.5-7.5s7.5,3.357,7.5,7.5v90c0,20.678-16.822,37.5-37.5,37.5H286c-20.678,0-37.5-16.822-37.5-37.5&#10;&#9;C248.5,203.107,263.5,203.107,263.5,207.25z" id="BJj-Y6XwSLf"/>
    </g>
    <g id="BJ3bFpXPrIM_SydEPvSLf" data-animator-group="true">
        <path d="M139.25,207.25c0,12.406,10.093,22.5,22.5,22.5H226c12.407,0,22.5-10.094,22.5-22.5v-90&#10;&#9;c0-4.143,3.358-7.5,7.5-7.5c4.143,0,7.5,3.357,7.5,7.5v90c0,20.678-16.822,37.5-37.5,37.5h-64.25c-20.678,0-37.5-16.822-37.5-37.5&#10;&#9;C124.25,203.107,139.25,203.107,139.25,207.25z" id="BJ3bFpXPrIM"/>
    </g>
    <g id="By6bFa7PH8f_HkaWDvBIf" data-animator-group="true">
        <path d="M7.5,357.25c-4.142,0-7.5-3.357-7.5-7.5v-82.5c0-20.678,16.822-37.5,37.5-37.5h64.25&#10;&#9;c12.407,0,22.5-10.094,22.5-22.5v-90c0-4.143,3.358-7.5,7.5-7.5s7.5,3.357,7.5,7.5v90c0,20.678-16.822,37.5-37.5,37.5H37.5&#10;&#9;c-12.407,0-22.5,10.094-22.5,22.5v82.5C15,353.893,11.642,357.25,7.5,357.25z" id="By6bFa7PH8f"/>
    </g>
    <path d="M459.5,27.25v90c24.853,0,45-20.147,45-45S484.353,27.25,459.5,27.25z" id="SJCZYTmPHLM"/>
    <path d="M459.5,27.25c-24.853,0-406.995,0-406.995,0v90c0,0,382.142,0,406.995,0c8.284,0,15-20.147,15-45&#10;&#9;S467.784,27.25,459.5,27.25z" id="HkJfFa7DrIG"/>
    <path d="M52.505,27.25v90c24.853,0,45-20.147,45-45C97.505,47.397,77.358,27.25,52.505,27.25z" id="HJgGFTmwSLM"/>
    <path d="M67.505,72.25c0-24.853-6.716-45-15-45c-24.853,0-45,20.147-45,45s20.147,45,45,45&#10;&#9;C60.789,117.25,67.505,97.103,67.505,72.25z" id="HJWfK6XDHIM"/>
    <g id="B1MMYamDSIz">
    </g>
    <g id="BymzYpmDHUM">
    </g>
    <g id="ryVfKamDBUf">
    </g>
    <g id="rJSzta7vBIf">
    </g>
    <g id="r1IMYaQPHIz">
    </g>
    <g id="B1vztpmDBIM">
    </g>
    <g id="SyuztTQPHUG">
    </g>
    <g id="rJKfYpXwHUM">
    </g>
    <g id="By5GFTXPH8z">
    </g>
    <g id="BJjGK67PBIz">
    </g>
    <g id="Bk3zFTXDrUz">
    </g>
    <g id="H16fYpmDHLG">
    </g>
    <g id="HkCGF6mPHUM">
    </g>
    <g id="BykXYT7DrLM">
    </g>
    <g id="r1g7FpXDHLM">
    </g>
</svg>