<svg version="1.1" id="S1Xx9ReHSLz" xmlns="http://www.w3.org/2000/svg" xmlns:xlink="http://www.w3.org/1999/xlink" x="0px" y="0px" viewBox="0 0 512 512" style="enable-background:new 0 0 512 512;" xmlns:svgjs="http://svgjs.com/svgjs">
    <style type="text/css">
        @-webkit-keyframes HyUZc0err8M_rk6dHBHLf_Animation{10%{-webkit-transform: translate(0px, -10px);transform: translate(0px, -10px);transform-box: fill-box;-webkit-transform-origin: 50% 50%;transform-origin: 50% 50%;}41.67%{-webkit-transform: translate(0px, 10px);transform: translate(0px, 10px);transform-box: fill-box;-webkit-transform-origin: 50% 50%;transform-origin: 50% 50%;}60%{-webkit-transform: translate(0px, -10px);transform: translate(0px, -10px);transform-box: fill-box;-webkit-transform-origin: 50% 50%;transform-origin: 50% 50%;}0%{-webkit-transform: translate(0px, -10px);transform: translate(0px, -10px);transform-box: fill-box;-webkit-transform-origin: 50% 50%;transform-origin: 50% 50%;}100%{-webkit-transform: translate(0px, -10px);transform: translate(0px, -10px);transform-box: fill-box;-webkit-transform-origin: 50% 50%;transform-origin: 50% 50%;}}@keyframes HyUZc0err8M_rk6dHBHLf_Animation{10%{-webkit-transform: translate(0px, -10px);transform: translate(0px, -10px);transform-box: fill-box;-webkit-transform-origin: 50% 50%;transform-origin: 50% 50%;}41.67%{-webkit-transform: translate(0px, 10px);transform: translate(0px, 10px);transform-box: fill-box;-webkit-transform-origin: 50% 50%;transform-origin: 50% 50%;}60%{-webkit-transform: translate(0px, -10px);transform: translate(0px, -10px);transform-box: fill-box;-webkit-transform-origin: 50% 50%;transform-origin: 50% 50%;}0%{-webkit-transform: translate(0px, -10px);transform: translate(0px, -10px);transform-box: fill-box;-webkit-transform-origin: 50% 50%;transform-origin: 50% 50%;}100%{-webkit-transform: translate(0px, -10px);transform: translate(0px, -10px);transform-box: fill-box;-webkit-transform-origin: 50% 50%;transform-origin: 50% 50%;}}@-webkit-keyframes rkeb50err8f_B1TeHHHUM_Animation{15%{-webkit-transform: translate(15px, 0px);transform: translate(15px, 0px);transform-box: fill-box;-webkit-transform-origin: 50% 50%;transform-origin: 50% 50%;}25%{-webkit-transform: translate(15px, 0px);transform: translate(15px, 0px);transform-box: fill-box;-webkit-transform-origin: 50% 50%;transform-origin: 50% 50%;}31.67%{-webkit-transform: translate(15px, 0px);transform: translate(15px, 0px);transform-box: fill-box;-webkit-transform-origin: 50% 50%;transform-origin: 50% 50%;}48.33%{-webkit-transform: translate(-15px, 0px);transform: translate(-15px, 0px);transform-box: fill-box;-webkit-transform-origin: 50% 50%;transform-origin: 50% 50%;}68.33%{-webkit-transform: translate(15px, 0px);transform: translate(15px, 0px);transform-box: fill-box;-webkit-transform-origin: 50% 50%;transform-origin: 50% 50%;}78.33%{-webkit-transform: translate(0px, 0px);transform: translate(0px, 0px);transform-box: fill-box;-webkit-transform-origin: 50% 50%;transform-origin: 50% 50%;}88.33%{-webkit-transform: translate(15px, 0px);transform: translate(15px, 0px);transform-box: fill-box;-webkit-transform-origin: 50% 50%;transform-origin: 50% 50%;}0%{-webkit-transform: translate(15px, 0px);transform: translate(15px, 0px);transform-box: fill-box;-webkit-transform-origin: 50% 50%;transform-origin: 50% 50%;}100%{-webkit-transform: translate(15px, 0px);transform: translate(15px, 0px);transform-box: fill-box;-webkit-transform-origin: 50% 50%;transform-origin: 50% 50%;}}@keyframes rkeb50err8f_B1TeHHHUM_Animation{15%{-webkit-transform: translate(15px, 0px);transform: translate(15px, 0px);transform-box: fill-box;-webkit-transform-origin: 50% 50%;transform-origin: 50% 50%;}25%{-webkit-transform: translate(15px, 0px);transform: translate(15px, 0px);transform-box: fill-box;-webkit-transform-origin: 50% 50%;transform-origin: 50% 50%;}31.67%{-webkit-transform: translate(15px, 0px);transform: translate(15px, 0px);transform-box: fill-box;-webkit-transform-origin: 50% 50%;transform-origin: 50% 50%;}48.33%{-webkit-transform: translate(-15px, 0px);transform: translate(-15px, 0px);transform-box: fill-box;-webkit-transform-origin: 50% 50%;transform-origin: 50% 50%;}68.33%{-webkit-transform: translate(15px, 0px);transform: translate(15px, 0px);transform-box: fill-box;-webkit-transform-origin: 50% 50%;transform-origin: 50% 50%;}78.33%{-webkit-transform: translate(0px, 0px);transform: translate(0px, 0px);transform-box: fill-box;-webkit-transform-origin: 50% 50%;transform-origin: 50% 50%;}88.33%{-webkit-transform: translate(15px, 0px);transform: translate(15px, 0px);transform-box: fill-box;-webkit-transform-origin: 50% 50%;transform-origin: 50% 50%;}0%{-webkit-transform: translate(15px, 0px);transform: translate(15px, 0px);transform-box: fill-box;-webkit-transform-origin: 50% 50%;transform-origin: 50% 50%;}100%{-webkit-transform: translate(15px, 0px);transform: translate(15px, 0px);transform-box: fill-box;-webkit-transform-origin: 50% 50%;transform-origin: 50% 50%;}}@-webkit-keyframes BJnl9CxBrIf_rkFLVHSIz_Animation{16.67%{-webkit-transform: translate(0px, -2.78px);transform: translate(0px, -2.78px);transform-box: fill-box;-webkit-transform-origin: 50% 50%;transform-origin: 50% 50%;}25%{-webkit-transform: translate(0px, 10px);transform: translate(0px, 10px);transform-box: fill-box;-webkit-transform-origin: 50% 50%;transform-origin: 50% 50%;}50%{-webkit-transform: translate(0px, 10px);transform: translate(0px, 10px);transform-box: fill-box;-webkit-transform-origin: 50% 50%;transform-origin: 50% 50%;}60%{-webkit-transform: translate(0px, -10px);transform: translate(0px, -10px);transform-box: fill-box;-webkit-transform-origin: 50% 50%;transform-origin: 50% 50%;}81.67%{-webkit-transform: translate(0px, 8px);transform: translate(0px, 8px);transform-box: fill-box;-webkit-transform-origin: 50% 50%;transform-origin: 50% 50%;}90%{-webkit-transform: translate(0px, 0px);transform: translate(0px, 0px);transform-box: fill-box;-webkit-transform-origin: 50% 50%;transform-origin: 50% 50%;}0%{-webkit-transform: translate(0px, -2.78px);transform: translate(0px, -2.78px);transform-box: fill-box;-webkit-transform-origin: 50% 50%;transform-origin: 50% 50%;}100%{-webkit-transform: translate(0px, 0px);transform: translate(0px, 0px);transform-box: fill-box;-webkit-transform-origin: 50% 50%;transform-origin: 50% 50%;}}@keyframes BJnl9CxBrIf_rkFLVHSIz_Animation{16.67%{-webkit-transform: translate(0px, -2.78px);transform: translate(0px, -2.78px);transform-box: fill-box;-webkit-transform-origin: 50% 50%;transform-origin: 50% 50%;}25%{-webkit-transform: translate(0px, 10px);transform: translate(0px, 10px);transform-box: fill-box;-webkit-transform-origin: 50% 50%;transform-origin: 50% 50%;}50%{-webkit-transform: translate(0px, 10px);transform: translate(0px, 10px);transform-box: fill-box;-webkit-transform-origin: 50% 50%;transform-origin: 50% 50%;}60%{-webkit-transform: translate(0px, -10px);transform: translate(0px, -10px);transform-box: fill-box;-webkit-transform-origin: 50% 50%;transform-origin: 50% 50%;}81.67%{-webkit-transform: translate(0px, 8px);transform: translate(0px, 8px);transform-box: fill-box;-webkit-transform-origin: 50% 50%;transform-origin: 50% 50%;}90%{-webkit-transform: translate(0px, 0px);transform: translate(0px, 0px);transform-box: fill-box;-webkit-transform-origin: 50% 50%;transform-origin: 50% 50%;}0%{-webkit-transform: translate(0px, -2.78px);transform: translate(0px, -2.78px);transform-box: fill-box;-webkit-transform-origin: 50% 50%;transform-origin: 50% 50%;}100%{-webkit-transform: translate(0px, 0px);transform: translate(0px, 0px);transform-box: fill-box;-webkit-transform-origin: 50% 50%;transform-origin: 50% 50%;}}@-webkit-keyframes SJYl9AlrS8G_ryKnmHHLz_Animation{11.67%{-webkit-transform: translate(16px, 0px);transform: translate(16px, 0px);transform-box: fill-box;-webkit-transform-origin: 50% 50%;transform-origin: 50% 50%;}21.67%{-webkit-transform: translate(-11px, 0px);transform: translate(-11px, 0px);transform-box: fill-box;-webkit-transform-origin: 50% 50%;transform-origin: 50% 50%;}30%{-webkit-transform: translate(16px, 0px);transform: translate(16px, 0px);transform-box: fill-box;-webkit-transform-origin: 50% 50%;transform-origin: 50% 50%;}71.67%{-webkit-transform: translate(16px, 0px);transform: translate(16px, 0px);transform-box: fill-box;-webkit-transform-origin: 50% 50%;transform-origin: 50% 50%;}85%{-webkit-transform: translate(16px, 0px);transform: translate(16px, 0px);transform-box: fill-box;-webkit-transform-origin: 50% 50%;transform-origin: 50% 50%;}95%{-webkit-transform: translate(0px, 0px);transform: translate(0px, 0px);transform-box: fill-box;-webkit-transform-origin: 50% 50%;transform-origin: 50% 50%;}0%{-webkit-transform: translate(16px, 0px);transform: translate(16px, 0px);transform-box: fill-box;-webkit-transform-origin: 50% 50%;transform-origin: 50% 50%;}100%{-webkit-transform: translate(0px, 0px);transform: translate(0px, 0px);transform-box: fill-box;-webkit-transform-origin: 50% 50%;transform-origin: 50% 50%;}}@keyframes SJYl9AlrS8G_ryKnmHHLz_Animation{11.67%{-webkit-transform: translate(16px, 0px);transform: translate(16px, 0px);transform-box: fill-box;-webkit-transform-origin: 50% 50%;transform-origin: 50% 50%;}21.67%{-webkit-transform: translate(-11px, 0px);transform: translate(-11px, 0px);transform-box: fill-box;-webkit-transform-origin: 50% 50%;transform-origin: 50% 50%;}30%{-webkit-transform: translate(16px, 0px);transform: translate(16px, 0px);transform-box: fill-box;-webkit-transform-origin: 50% 50%;transform-origin: 50% 50%;}71.67%{-webkit-transform: translate(16px, 0px);transform: translate(16px, 0px);transform-box: fill-box;-webkit-transform-origin: 50% 50%;transform-origin: 50% 50%;}85%{-webkit-transform: translate(16px, 0px);transform: translate(16px, 0px);transform-box: fill-box;-webkit-transform-origin: 50% 50%;transform-origin: 50% 50%;}95%{-webkit-transform: translate(0px, 0px);transform: translate(0px, 0px);transform-box: fill-box;-webkit-transform-origin: 50% 50%;transform-origin: 50% 50%;}0%{-webkit-transform: translate(16px, 0px);transform: translate(16px, 0px);transform-box: fill-box;-webkit-transform-origin: 50% 50%;transform-origin: 50% 50%;}100%{-webkit-transform: translate(0px, 0px);transform: translate(0px, 0px);transform-box: fill-box;-webkit-transform-origin: 50% 50%;transform-origin: 50% 50%;}}@-webkit-keyframes SJuW90eSBUM_HypzZrrLG_Animation{0%{-webkit-transform: translate(-35px, 36px);transform: translate(-35px, 36px);transform-box: fill-box;-webkit-transform-origin: 50% 50%;transform-origin: 50% 50%;}16.67%{-webkit-transform: translate(-10px, 20px);transform: translate(-10px, 20px);transform-box: fill-box;-webkit-transform-origin: 50% 50%;transform-origin: 50% 50%;}38.33%{-webkit-transform: translate(0px, 0px);transform: translate(0px, 0px);transform-box: fill-box;-webkit-transform-origin: 50% 50%;transform-origin: 50% 50%;}60%{-webkit-transform: translate(-35px, 36px);transform: translate(-35px, 36px);transform-box: fill-box;-webkit-transform-origin: 50% 50%;transform-origin: 50% 50%;}100%{-webkit-transform: translate(-35px, 36px);transform: translate(-35px, 36px);transform-box: fill-box;-webkit-transform-origin: 50% 50%;transform-origin: 50% 50%;}}@keyframes SJuW90eSBUM_HypzZrrLG_Animation{0%{-webkit-transform: translate(-35px, 36px);transform: translate(-35px, 36px);transform-box: fill-box;-webkit-transform-origin: 50% 50%;transform-origin: 50% 50%;}16.67%{-webkit-transform: translate(-10px, 20px);transform: translate(-10px, 20px);transform-box: fill-box;-webkit-transform-origin: 50% 50%;transform-origin: 50% 50%;}38.33%{-webkit-transform: translate(0px, 0px);transform: translate(0px, 0px);transform-box: fill-box;-webkit-transform-origin: 50% 50%;transform-origin: 50% 50%;}60%{-webkit-transform: translate(-35px, 36px);transform: translate(-35px, 36px);transform-box: fill-box;-webkit-transform-origin: 50% 50%;transform-origin: 50% 50%;}100%{-webkit-transform: translate(-35px, 36px);transform: translate(-35px, 36px);transform-box: fill-box;-webkit-transform-origin: 50% 50%;transform-origin: 50% 50%;}}#S1Xx9ReHSLz *{-webkit-animation-duration: 2s;animation-duration: 2s;-webkit-animation-iteration-count: infinite;animation-iteration-count: infinite;-webkit-animation-timing-function: cubic-bezier(0, 0, 1, 1);animation-timing-function: cubic-bezier(0, 0, 1, 1);}#HJBlqRgHrLM{fill: #38454F;}#By8eqCerr8G{fill: #546A79;}#SyDx9Cxrr8z{fill: #B0B6BB;}#SJYl9AlrS8G{fill: #EA6148;}#HJ5lcAerHUz{fill: #EA6148;}#BJslqAlBB8z{fill: #EA6148;}#BJnl9CxBrIf{fill: #EA6148;}#rkpeqRxBrLM{fill: #EA6148;}#HyRg9AgrBLz{fill: #EA6148;}#HkJZ9RgrSUf{fill: #EA6148;}#rkeb50err8f{fill: #EA6148;}#ryZW5RerSLM{fill: #EA6148;}#SkfW5CxrHIz{fill: #EA6148;}#r1Qbc0gBS8M{fill: #EA6148;}#rJE-50xHSIf{fill: #EA6148;}#rkBZq0gHSLz{fill: #EA6148;}#HyUZc0err8M{fill: #EA6148;}#BkvZqAxHSIG{fill: #EA6148;}#SJuW90eSBUM{fill: #ECBA16;}#B1KZ50grrLM{fill: #25AE88;}#SJuW90eSBUM_HypzZrrLG{-webkit-animation-name: SJuW90eSBUM_HypzZrrLG_Animation;animation-name: SJuW90eSBUM_HypzZrrLG_Animation;}#SJYl9AlrS8G_ryKnmHHLz{-webkit-animation-name: SJYl9AlrS8G_ryKnmHHLz_Animation;animation-name: SJYl9AlrS8G_ryKnmHHLz_Animation;}#BJnl9CxBrIf_rkFLVHSIz{-webkit-animation-name: BJnl9CxBrIf_rkFLVHSIz_Animation;animation-name: BJnl9CxBrIf_rkFLVHSIz_Animation;}#rkeb50err8f_B1TeHHHUM{-webkit-animation-name: rkeb50err8f_B1TeHHHUM_Animation;animation-name: rkeb50err8f_B1TeHHHUM_Animation;}#HyUZc0err8M_rk6dHBHLf{-webkit-animation-name: HyUZc0err8M_rk6dHBHLf_Animation;animation-name: HyUZc0err8M_rk6dHBHLf_Animation;}
    </style>
    <g id="S14l90lHSIz" class="">
        <path d="M185.379,384v17.655h141.241V384H476.69V101.517c0-9.754-7.901-17.655-17.655-17.655H52.966&#10;&#9;&#9;c-9.754,0-17.655,7.901-17.655,17.655V384H185.379z" id="HJBlqRgHrLM"/>
        <polygon points="52.966,366.345 459.034,366.345 459.034,101.517 52.966,101.517 &#9;" id="By8eqCerr8G"/>
        <path d="M326.621,384v17.655H185.379V384H0v26.483c0,9.754,7.901,17.655,17.655,17.655h476.69&#10;&#9;&#9;c9.754,0,17.655-7.901,17.655-17.655V384H326.621z" id="SyDx9Cxrr8z"/>
        <g id="r1Ol9AxrHUf">
            <g id="SJYl9AlrS8G_ryKnmHHLz" data-animator-group="true">
                <path d="M97.103,145.655H70.621c-4.873,0-8.828-3.955-8.828-8.828c0-4.873,3.955-8.828,8.828-8.828h26.483&#10;&#9;&#9;&#9;c4.873,0,8.828,3.955,8.828,8.828C105.931,141.7,101.976,145.655,97.103,145.655" id="SJYl9AlrS8G"/>
            </g>
            <path d="M194.207,145.655h-61.793c-4.873,0-8.828-3.955-8.828-8.828c0-4.873,3.955-8.828,8.828-8.828&#10;&#9;&#9;&#9;h61.793c4.873,0,8.828,3.955,8.828,8.828C203.034,141.7,199.08,145.655,194.207,145.655" id="HJ5lcAerHUz"/>
            <path d="M114.759,180.966H70.621c-4.873,0-8.828-3.955-8.828-8.828c0-4.873,3.955-8.828,8.828-8.828h44.138&#10;&#9;&#9;&#9;c4.873,0,8.828,3.955,8.828,8.828C123.586,177.011,119.631,180.966,114.759,180.966" id="BJslqAlBB8z"/>
            <g id="BJnl9CxBrIf_rkFLVHSIz" data-animator-group="true">
                <path d="M158.897,180.966h-8.828c-4.873,0-8.828-3.955-8.828-8.828c0-4.873,3.955-8.828,8.828-8.828h8.828&#10;&#9;&#9;&#9;c4.873,0,8.828,3.955,8.828,8.828C167.724,177.011,163.769,180.966,158.897,180.966" id="BJnl9CxBrIf"/>
            </g>
            <path d="M194.207,180.966c-1.148,0-2.295-0.177-3.354-0.706c-1.059-0.441-2.03-1.059-2.913-1.854&#10;&#9;&#9;&#9;c-1.589-1.677-2.56-3.972-2.56-6.268c0-2.295,0.971-4.59,2.56-6.268c0.883-0.794,1.854-1.412,2.913-1.854&#10;&#9;&#9;&#9;c3.266-1.412,7.15-0.618,9.622,1.854c1.589,1.677,2.56,3.972,2.56,6.268c0,2.295-0.971,4.59-2.56,6.268&#10;&#9;&#9;&#9;c-0.883,0.794-1.854,1.412-2.913,1.854C196.502,180.789,195.354,180.966,194.207,180.966" id="rkpeqRxBrLM"/>
            <path d="M97.103,216.276H70.621c-4.873,0-8.828-3.955-8.828-8.828c0-4.873,3.955-8.828,8.828-8.828h26.483&#10;&#9;&#9;&#9;c4.873,0,8.828,3.955,8.828,8.828C105.931,212.321,101.976,216.276,97.103,216.276" id="HyRg9AgrBLz"/>
            <path d="M194.207,216.276h-61.793c-4.873,0-8.828-3.955-8.828-8.828c0-4.873,3.955-8.828,8.828-8.828&#10;&#9;&#9;&#9;h61.793c4.873,0,8.828,3.955,8.828,8.828C203.034,212.321,199.08,216.276,194.207,216.276" id="HkJZ9RgrSUf"/>
            <g id="rkeb50err8f_B1TeHHHUM" data-animator-group="true">
                <path d="M114.759,251.586H70.621c-4.873,0-8.828-3.955-8.828-8.828s3.955-8.828,8.828-8.828h44.138&#10;&#9;&#9;&#9;c4.873,0,8.828,3.955,8.828,8.828S119.631,251.586,114.759,251.586" id="rkeb50err8f"/>
            </g>
            <path d="M158.897,251.586h-8.828c-4.873,0-8.828-3.955-8.828-8.828s3.955-8.828,8.828-8.828h8.828&#10;&#9;&#9;&#9;c4.873,0,8.828,3.955,8.828,8.828S163.769,251.586,158.897,251.586" id="ryZW5RerSLM"/>
            <path d="M194.207,251.586c-2.295,0-4.59-0.971-6.268-2.56c-0.794-0.883-1.412-1.854-1.854-2.913&#10;&#9;&#9;&#9;c-0.441-1.059-0.706-2.207-0.706-3.354c0-0.618,0.088-1.148,0.177-1.766c0.088-0.53,0.265-1.059,0.53-1.589&#10;&#9;&#9;&#9;c0.177-0.53,0.441-1.059,0.794-1.589c0.265-0.441,0.706-0.883,1.059-1.324c2.472-2.472,6.356-3.266,9.622-1.854&#10;&#9;&#9;&#9;c1.059,0.441,2.03,1.059,2.913,1.854c0.353,0.441,0.794,0.883,1.059,1.324c0.353,0.53,0.618,1.059,0.794,1.589&#10;&#9;&#9;&#9;c0.265,0.53,0.441,1.059,0.53,1.589c0.088,0.618,0.177,1.148,0.177,1.766c0,1.148-0.265,2.295-0.706,3.354&#10;&#9;&#9;&#9;s-1.059,2.03-1.854,2.913c-0.883,0.794-1.854,1.412-2.913,1.854C196.502,251.41,195.354,251.586,194.207,251.586" id="SkfW5CxrHIz"/>
            <path d="M97.103,286.897H70.621c-4.873,0-8.828-3.955-8.828-8.828s3.955-8.828,8.828-8.828h26.483&#10;&#9;&#9;&#9;c4.873,0,8.828,3.955,8.828,8.828S101.976,286.897,97.103,286.897" id="r1Qbc0gBS8M"/>
            <path d="M194.207,286.897h-61.793c-4.873,0-8.828-3.955-8.828-8.828s3.955-8.828,8.828-8.828h61.793&#10;&#9;&#9;&#9;c4.873,0,8.828,3.955,8.828,8.828S199.08,286.897,194.207,286.897" id="rJE-50xHSIf"/>
            <path d="M114.759,322.207H70.621c-4.873,0-8.828-3.955-8.828-8.828s3.955-8.828,8.828-8.828h44.138&#10;&#9;&#9;&#9;c4.873,0,8.828,3.955,8.828,8.828S119.631,322.207,114.759,322.207" id="rkBZq0gHSLz"/>
            <g id="HyUZc0err8M_rk6dHBHLf" data-animator-group="true">
                <path d="M158.897,322.207h-8.828c-4.873,0-8.828-3.955-8.828-8.828s3.955-8.828,8.828-8.828h8.828&#10;&#9;&#9;&#9;c4.873,0,8.828,3.955,8.828,8.828S163.769,322.207,158.897,322.207" id="HyUZc0err8M"/>
            </g>
            <path d="M194.207,322.207c-1.148,0-2.295-0.177-3.354-0.706c-1.059-0.441-2.03-1.059-2.913-1.854&#10;&#9;&#9;&#9;c-1.589-1.677-2.56-3.972-2.56-6.268c0-1.148,0.265-2.295,0.706-3.354c0.441-1.059,1.059-2.03,1.854-2.913&#10;&#9;&#9;&#9;c0.883-0.794,1.854-1.412,2.913-1.854c1.589-0.706,3.354-0.883,5.12-0.53c0.53,0.088,1.059,0.265,1.589,0.53&#10;&#9;&#9;&#9;c0.53,0.177,1.059,0.441,1.589,0.794c0.441,0.353,0.883,0.706,1.324,1.059c0.794,0.883,1.412,1.854,1.854,2.913&#10;&#9;&#9;&#9;c0.53,1.059,0.706,2.207,0.706,3.354c0,2.295-0.971,4.59-2.56,6.268c-0.441,0.353-0.883,0.794-1.324,1.059&#10;&#9;&#9;&#9;c-0.53,0.353-1.059,0.618-1.589,0.794c-0.53,0.265-1.059,0.441-1.589,0.53C195.354,322.119,194.825,322.207,194.207,322.207" id="BkvZqAxHSIG"/>
        </g>
        <g id="SJuW90eSBUM_HypzZrrLG" data-animator-group="true">
            <path d="M353.103,119.172v88.276h88.276C441.379,158.694,401.858,119.172,353.103,119.172" id="SJuW90eSBUM"/>
        </g>
        <path d="M317.793,242.759v-88.276c-48.755,0-88.276,39.521-88.276,88.276s39.521,88.276,88.276,88.276&#10;&#9;&#9;s88.276-39.521,88.276-88.276H317.793z" id="B1KZ50grrLM"/>
    </g>
    <g id="r1c-cAxBSLz">
    </g>
    <g id="SksZ50xBH8f">
    </g>
    <g id="Hy3W90lHrUG">
    </g>
    <g id="r1p-5ReBHLf">
    </g>
    <g id="H10b9AgBHIz">
    </g>
    <g id="H1JG5RgSB8f">
    </g>
    <g id="B1lf9AgrSUf">
    </g>
    <g id="rk-z9RxrHIM">
    </g>
    <g id="ryzz5AlrH8M">
    </g>
    <g id="rkmfqCgHS8z">
    </g>
    <g id="rJ4zcRgSSIG">
    </g>
    <g id="SkSG5ClrBUG">
    </g>
    <g id="BJIGcAgSSUf">
    </g>
    <g id="HyDGc0xBBIM">
    </g>
    <g id="Sy_fcClBHUf">
    </g>
</svg>