<svg version="1.1" id="HJXxHvjLrUf" xmlns="http://www.w3.org/2000/svg" xmlns:xlink="http://www.w3.org/1999/xlink" x="0px" y="0px" viewBox="0 0 468.42 468.42" style="enable-background:new 0 0 468.42 468.42;" xmlns:svgjs="http://svgjs.com/svgjs">
    <style type="text/css">
        @-webkit-keyframes BkcxBwiUrLM_Animation{1.11%{opacity: 1;transform-box: fill-box;-webkit-transform-origin: 50% 50%;transform-origin: 50% 50%;}8.89%{opacity: 0.5;transform-box: fill-box;-webkit-transform-origin: 50% 50%;transform-origin: 50% 50%;}22.22%{opacity: 1;transform-box: fill-box;-webkit-transform-origin: 50% 50%;transform-origin: 50% 50%;}32.22%{opacity: 0.2;transform-box: fill-box;-webkit-transform-origin: 50% 50%;transform-origin: 50% 50%;}47.78%{opacity: 0.8;transform-box: fill-box;-webkit-transform-origin: 50% 50%;transform-origin: 50% 50%;}61.11%{opacity: 1;transform-box: fill-box;-webkit-transform-origin: 50% 50%;transform-origin: 50% 50%;}77.78%{opacity: 0.2;transform-box: fill-box;-webkit-transform-origin: 50% 50%;transform-origin: 50% 50%;}96.67%{opacity: 1;transform-box: fill-box;-webkit-transform-origin: 50% 50%;transform-origin: 50% 50%;}0%{opacity: 1;transform-box: fill-box;-webkit-transform-origin: 50% 50%;transform-origin: 50% 50%;}100%{opacity: 1;transform-box: fill-box;-webkit-transform-origin: 50% 50%;transform-origin: 50% 50%;}}@keyframes BkcxBwiUrLM_Animation{1.11%{opacity: 1;transform-box: fill-box;-webkit-transform-origin: 50% 50%;transform-origin: 50% 50%;}8.89%{opacity: 0.5;transform-box: fill-box;-webkit-transform-origin: 50% 50%;transform-origin: 50% 50%;}22.22%{opacity: 1;transform-box: fill-box;-webkit-transform-origin: 50% 50%;transform-origin: 50% 50%;}32.22%{opacity: 0.2;transform-box: fill-box;-webkit-transform-origin: 50% 50%;transform-origin: 50% 50%;}47.78%{opacity: 0.8;transform-box: fill-box;-webkit-transform-origin: 50% 50%;transform-origin: 50% 50%;}61.11%{opacity: 1;transform-box: fill-box;-webkit-transform-origin: 50% 50%;transform-origin: 50% 50%;}77.78%{opacity: 0.2;transform-box: fill-box;-webkit-transform-origin: 50% 50%;transform-origin: 50% 50%;}96.67%{opacity: 1;transform-box: fill-box;-webkit-transform-origin: 50% 50%;transform-origin: 50% 50%;}0%{opacity: 1;transform-box: fill-box;-webkit-transform-origin: 50% 50%;transform-origin: 50% 50%;}100%{opacity: 1;transform-box: fill-box;-webkit-transform-origin: 50% 50%;transform-origin: 50% 50%;}}@-webkit-keyframes ByogBPjIB8M_Animation{0%{opacity: 1;transform-box: fill-box;-webkit-transform-origin: 50% 50%;transform-origin: 50% 50%;}11.11%{opacity: 0.6;transform-box: fill-box;-webkit-transform-origin: 50% 50%;transform-origin: 50% 50%;}18.89%{opacity: 0.9;transform-box: fill-box;-webkit-transform-origin: 50% 50%;transform-origin: 50% 50%;}27.78%{opacity: 1;transform-box: fill-box;-webkit-transform-origin: 50% 50%;transform-origin: 50% 50%;}36.67%{opacity: 0.6;transform-box: fill-box;-webkit-transform-origin: 50% 50%;transform-origin: 50% 50%;}53.33%{opacity: 0.5;transform-box: fill-box;-webkit-transform-origin: 50% 50%;transform-origin: 50% 50%;}71.11%{opacity: 0.3;transform-box: fill-box;-webkit-transform-origin: 50% 50%;transform-origin: 50% 50%;}86.67%{opacity: 1;transform-box: fill-box;-webkit-transform-origin: 50% 50%;transform-origin: 50% 50%;}100%{opacity: 1;transform-box: fill-box;-webkit-transform-origin: 50% 50%;transform-origin: 50% 50%;}}@keyframes ByogBPjIB8M_Animation{0%{opacity: 1;transform-box: fill-box;-webkit-transform-origin: 50% 50%;transform-origin: 50% 50%;}11.11%{opacity: 0.6;transform-box: fill-box;-webkit-transform-origin: 50% 50%;transform-origin: 50% 50%;}18.89%{opacity: 0.9;transform-box: fill-box;-webkit-transform-origin: 50% 50%;transform-origin: 50% 50%;}27.78%{opacity: 1;transform-box: fill-box;-webkit-transform-origin: 50% 50%;transform-origin: 50% 50%;}36.67%{opacity: 0.6;transform-box: fill-box;-webkit-transform-origin: 50% 50%;transform-origin: 50% 50%;}53.33%{opacity: 0.5;transform-box: fill-box;-webkit-transform-origin: 50% 50%;transform-origin: 50% 50%;}71.11%{opacity: 0.3;transform-box: fill-box;-webkit-transform-origin: 50% 50%;transform-origin: 50% 50%;}86.67%{opacity: 1;transform-box: fill-box;-webkit-transform-origin: 50% 50%;transform-origin: 50% 50%;}100%{opacity: 1;transform-box: fill-box;-webkit-transform-origin: 50% 50%;transform-origin: 50% 50%;}}#HJXxHvjLrUf *{-webkit-animation-duration: 3s;animation-duration: 3s;-webkit-animation-iteration-count: infinite;animation-iteration-count: infinite;-webkit-animation-timing-function: cubic-bezier(0, 0, 1, 1);animation-timing-function: cubic-bezier(0, 0, 1, 1);}#BkSlBwsISLG{fill: #D15241;}#HkIxBDoISLf{fill: #D15241;}#SywgrDjUSUM{fill: #CE412D;}#S1ugBvsLBIG{fill: #D5D6DB;}#SJteSvi8rUM{fill: #D15241;}#BkcxBwiUrLM{fill: #F7BE56;-webkit-animation-name: BkcxBwiUrLM_Animation;animation-name: BkcxBwiUrLM_Animation;}#ByogBPjIB8M{fill: #FCD462;-webkit-animation-name: ByogBPjIB8M_Animation;animation-name: ByogBPjIB8M_Animation;}#SynerPi8HUz{fill: #D15241;}#BkplrPoISLM{fill: #DC8744;}#SJ0lrDoLBLz{fill: #E56353;}#r11-rPoUBUG{fill: #27A2DB;}#rkg-SwsUSLG{fill: #D15241;}
    </style>
    <g id="SyEgHPjUB8G" class="">
        <path d="M285.971,394.118l-74.302,74.302c18.107-51.2,23.102-96.156-1.249-126.127l75.551-75.551l0,0&#10;&#9;&#9;C320.937,302.333,320.937,359.152,285.971,394.118z" id="BkSlBwsISLG"/>
        <path d="M201.678,182.45l-11.239,11.239l-64.312,64.312C96.156,233.65,51.2,238.645,0,256.752l74.302-74.302&#10;&#9;&#9;C109.268,147.484,166.712,147.484,201.678,182.45L201.678,182.45z" id="HkIxBDoISLf"/>
    </g>
    <path d="M285.971,394.118l-11.239,11.239l-63.063,63.063c18.107-51.2,23.102-96.156-1.249-126.127&#10;&#9;l64.312-64.312l11.239-11.239l0,0C320.937,302.333,320.937,359.152,285.971,394.118z" id="SywgrDjUSUM"/>
    <path d="M230.4,102.528c-63.063,63.063-104.273,131.122-114.888,181.073l68.683,68.683&#10;&#9;c49.951-9.99,118.01-51.824,181.073-114.888c42.459-42.459,67.434-94.283,82.419-139.239l-78.049-78.049&#10;&#9;C325.307,35.094,272.859,60.069,230.4,102.528z" id="S1ugBvsLBIG"/>
    <path d="M452.683,0.128c-18.107,2.498-48.078,8.117-82.42,19.356l78.673,78.673&#10;&#9;c11.863-34.341,16.859-64.937,19.356-83.044C469.542,6.996,461.424-1.121,452.683,0.128z" id="SJteSvi8rUM"/>
    <path d="M41.834,426.586c-21.854-85.541,4.371-128,78.049-127.376l49.327,49.327&#10;&#9;C169.834,422.216,127.376,448.44,41.834,426.586z" id="BkcxBwiUrLM"/>
    <path d="M73.054,395.367c-14.985-59.941,3.122-89.288,54.946-89.288l34.341,34.341&#10;&#9;C162.342,392.869,132.995,410.977,73.054,395.367z" id="ByogBPjIB8M"/>
    <path d="M74.303,182.45L0,256.752c51.2-18.107,96.156-23.102,126.127,1.249l75.551-75.551l0,0&#10;&#9;C166.712,147.484,109.268,147.484,74.303,182.45z" id="SynerPi8HUz"/>
    <polygon points="121.132,280.479 104.898,289.845 178.576,363.523 187.942,347.289 " id="BkplrPoISLM"/>
    <path d="M395.864,140.616c-18.732,18.732-49.327,18.732-68.059,0c-18.732-18.732-18.732-49.327,0-68.059&#10;&#9;c18.732-18.732,49.327-18.732,68.059,0C414.595,91.289,414.595,121.884,395.864,140.616z" id="SJ0lrDoLBLz"/>
    <path d="M387.746,131.874c-14.361,14.361-36.839,14.361-51.2,0c-14.361-14.361-14.361-36.839,0-51.2&#10;&#9;s36.839-14.361,51.2,0C401.483,95.035,401.483,118.138,387.746,131.874z" id="r11-rPoUBUG"/>
    <path d="M197.932,282.977c-36.839,36.839-69.307,63.688-72.429,59.941&#10;&#9;c-3.746-3.746,23.102-36.215,59.941-72.429c36.839-36.839,69.307-63.688,72.429-59.941&#10;&#9;C261.62,214.294,234.771,246.762,197.932,282.977z" id="rkg-SwsUSLG"/>
    <g id="By-ZHPsUSIG">
    </g>
    <g id="rkG-rDiIBLf">
    </g>
    <g id="Hy7bBwoLrLM">
    </g>
    <g id="Sk4ZSPiIBLG">
    </g>
    <g id="S1BWBDs8BLf">
    </g>
    <g id="SkU-BDoIH8z">
    </g>
    <g id="HJwWBDoLrIz">
    </g>
    <g id="HyOWBvoLSUG">
    </g>
    <g id="Bkt-SDjLHUz">
    </g>
    <g id="Hk9WSPj8S8M">
    </g>
    <g id="SkjWSDj8BLz">
    </g>
    <g id="B1nZBviIBUM">
    </g>
    <g id="rkaZSPoLH8z">
    </g>
    <g id="B1C-HvsIBUM">
    </g>
    <g id="rJJMHDi8BLG">
    </g>
</svg>