<svg version="1.1" id="rkmeBwCDHUf" xmlns="http://www.w3.org/2000/svg" xmlns:xlink="http://www.w3.org/1999/xlink" x="0px" y="0px" viewBox="0 0 512.001 512.001" style="enable-background:new 0 0 512.001 512.001;" xmlns:svgjs="http://svgjs.com/svgjs">
    <style type="text/css">
        @-webkit-keyframes Bkh-HDRvBUG_Sk1FJdB8f_Animation{0%{-webkit-transform: rotate(0deg);transform: rotate(0deg);transform-box: fill-box;-webkit-transform-origin: 50% 50%;transform-origin: 50% 50%;}13.33%{-webkit-transform: rotate(-5deg);transform: rotate(-5deg);transform-box: fill-box;-webkit-transform-origin: 50% 50%;transform-origin: 50% 50%;}33.33%{-webkit-transform: rotate(0deg);transform: rotate(0deg);transform-box: fill-box;-webkit-transform-origin: 50% 50%;transform-origin: 50% 50%;}54.44%{-webkit-transform: rotate(-5deg);transform: rotate(-5deg);transform-box: fill-box;-webkit-transform-origin: 50% 50%;transform-origin: 50% 50%;}72.22%{-webkit-transform: rotate(0deg);transform: rotate(0deg);transform-box: fill-box;-webkit-transform-origin: 50% 50%;transform-origin: 50% 50%;}82.22%{-webkit-transform: rotate(-5deg);transform: rotate(-5deg);transform-box: fill-box;-webkit-transform-origin: 50% 50%;transform-origin: 50% 50%;}93.33%{-webkit-transform: rotate(0deg);transform: rotate(0deg);transform-box: fill-box;-webkit-transform-origin: 50% 50%;transform-origin: 50% 50%;}100%{-webkit-transform: rotate(0deg);transform: rotate(0deg);transform-box: fill-box;-webkit-transform-origin: 50% 50%;transform-origin: 50% 50%;}}@keyframes Bkh-HDRvBUG_Sk1FJdB8f_Animation{0%{-webkit-transform: rotate(0deg);transform: rotate(0deg);transform-box: fill-box;-webkit-transform-origin: 50% 50%;transform-origin: 50% 50%;}13.33%{-webkit-transform: rotate(-5deg);transform: rotate(-5deg);transform-box: fill-box;-webkit-transform-origin: 50% 50%;transform-origin: 50% 50%;}33.33%{-webkit-transform: rotate(0deg);transform: rotate(0deg);transform-box: fill-box;-webkit-transform-origin: 50% 50%;transform-origin: 50% 50%;}54.44%{-webkit-transform: rotate(-5deg);transform: rotate(-5deg);transform-box: fill-box;-webkit-transform-origin: 50% 50%;transform-origin: 50% 50%;}72.22%{-webkit-transform: rotate(0deg);transform: rotate(0deg);transform-box: fill-box;-webkit-transform-origin: 50% 50%;transform-origin: 50% 50%;}82.22%{-webkit-transform: rotate(-5deg);transform: rotate(-5deg);transform-box: fill-box;-webkit-transform-origin: 50% 50%;transform-origin: 50% 50%;}93.33%{-webkit-transform: rotate(0deg);transform: rotate(0deg);transform-box: fill-box;-webkit-transform-origin: 50% 50%;transform-origin: 50% 50%;}100%{-webkit-transform: rotate(0deg);transform: rotate(0deg);transform-box: fill-box;-webkit-transform-origin: 50% 50%;transform-origin: 50% 50%;}}@-webkit-keyframes H1QfBw0vSUf_SyrrkOrUf_Animation{0%{-webkit-transform: rotate(0deg);transform: rotate(0deg);transform-box: fill-box;-webkit-transform-origin: 50% 50%;transform-origin: 50% 50%;}21.11%{-webkit-transform: rotate(-20deg);transform: rotate(-20deg);transform-box: fill-box;-webkit-transform-origin: 50% 50%;transform-origin: 50% 50%;}45.56%{-webkit-transform: rotate(0deg);transform: rotate(0deg);transform-box: fill-box;-webkit-transform-origin: 50% 50%;transform-origin: 50% 50%;}63.33%{-webkit-transform: rotate(-20deg);transform: rotate(-20deg);transform-box: fill-box;-webkit-transform-origin: 50% 50%;transform-origin: 50% 50%;}82.22%{-webkit-transform: rotate(0deg);transform: rotate(0deg);transform-box: fill-box;-webkit-transform-origin: 50% 50%;transform-origin: 50% 50%;}100%{-webkit-transform: rotate(0deg);transform: rotate(0deg);transform-box: fill-box;-webkit-transform-origin: 50% 50%;transform-origin: 50% 50%;}}@keyframes H1QfBw0vSUf_SyrrkOrUf_Animation{0%{-webkit-transform: rotate(0deg);transform: rotate(0deg);transform-box: fill-box;-webkit-transform-origin: 50% 50%;transform-origin: 50% 50%;}21.11%{-webkit-transform: rotate(-20deg);transform: rotate(-20deg);transform-box: fill-box;-webkit-transform-origin: 50% 50%;transform-origin: 50% 50%;}45.56%{-webkit-transform: rotate(0deg);transform: rotate(0deg);transform-box: fill-box;-webkit-transform-origin: 50% 50%;transform-origin: 50% 50%;}63.33%{-webkit-transform: rotate(-20deg);transform: rotate(-20deg);transform-box: fill-box;-webkit-transform-origin: 50% 50%;transform-origin: 50% 50%;}82.22%{-webkit-transform: rotate(0deg);transform: rotate(0deg);transform-box: fill-box;-webkit-transform-origin: 50% 50%;transform-origin: 50% 50%;}100%{-webkit-transform: rotate(0deg);transform: rotate(0deg);transform-box: fill-box;-webkit-transform-origin: 50% 50%;transform-origin: 50% 50%;}}@-webkit-keyframes SyhlHw0PSIG_Animation{0%{opacity: 0;transform-box: fill-box;-webkit-transform-origin: 50% 50%;transform-origin: 50% 50%;}14.44%{opacity: 0.2;transform-box: fill-box;-webkit-transform-origin: 50% 50%;transform-origin: 50% 50%;}22.22%{opacity: 1;transform-box: fill-box;-webkit-transform-origin: 50% 50%;transform-origin: 50% 50%;}34.44%{opacity: 1;transform-box: fill-box;-webkit-transform-origin: 50% 50%;transform-origin: 50% 50%;}51.11%{opacity: 0.5;transform-box: fill-box;-webkit-transform-origin: 50% 50%;transform-origin: 50% 50%;}67.78%{opacity: 1;transform-box: fill-box;-webkit-transform-origin: 50% 50%;transform-origin: 50% 50%;}77.78%{opacity: 0.5;transform-box: fill-box;-webkit-transform-origin: 50% 50%;transform-origin: 50% 50%;}90%{opacity: 1;transform-box: fill-box;-webkit-transform-origin: 50% 50%;transform-origin: 50% 50%;}100%{opacity: 1;transform-box: fill-box;-webkit-transform-origin: 50% 50%;transform-origin: 50% 50%;}}@keyframes SyhlHw0PSIG_Animation{0%{opacity: 0;transform-box: fill-box;-webkit-transform-origin: 50% 50%;transform-origin: 50% 50%;}14.44%{opacity: 0.2;transform-box: fill-box;-webkit-transform-origin: 50% 50%;transform-origin: 50% 50%;}22.22%{opacity: 1;transform-box: fill-box;-webkit-transform-origin: 50% 50%;transform-origin: 50% 50%;}34.44%{opacity: 1;transform-box: fill-box;-webkit-transform-origin: 50% 50%;transform-origin: 50% 50%;}51.11%{opacity: 0.5;transform-box: fill-box;-webkit-transform-origin: 50% 50%;transform-origin: 50% 50%;}67.78%{opacity: 1;transform-box: fill-box;-webkit-transform-origin: 50% 50%;transform-origin: 50% 50%;}77.78%{opacity: 0.5;transform-box: fill-box;-webkit-transform-origin: 50% 50%;transform-origin: 50% 50%;}90%{opacity: 1;transform-box: fill-box;-webkit-transform-origin: 50% 50%;transform-origin: 50% 50%;}100%{opacity: 1;transform-box: fill-box;-webkit-transform-origin: 50% 50%;transform-origin: 50% 50%;}}#rkmeBwCDHUf *{-webkit-animation-duration: 3s;animation-duration: 3s;-webkit-animation-iteration-count: infinite;animation-iteration-count: infinite;-webkit-animation-timing-function: cubic-bezier(0, 0, 1, 1);animation-timing-function: cubic-bezier(0, 0, 1, 1);}#HyNgBP0Dr8z{fill: #116F97;}#BkHlHPCPSIz{fill: #084F6D;}#Hk8xHPRDBUG{fill: #9DB55F;}#SkPlSvAwSLM{fill: #B9D171;}#HJugSD0wSLz{fill: #116F97;}#SytlHD0DHUM{fill: #084F6D;}#H19gBvCDBLM{fill: #DBF4FF;}#r1ogSDCvSLM{fill: #FFFFFF;}#SyhlHw0PSIG{fill: #116F97;-webkit-animation-name: SyhlHw0PSIG_Animation;animation-name: SyhlHw0PSIG_Animation;}#SyTeHDRwSIG{fill: #7DD9FF;}#Sy0eSvCwrIf{fill: #A8E5FF;}#SkJZBwRDS8z{fill: #49C9FF;}#ByxbBvAwS8f{fill: #7DD9FF;}#H1W-Bv0wBIz{fill: #002F42;}#By7bHw0vBUM{fill: #084F6D;}#SkEbSDADrLz{fill: #084F6D;}#S1S-SwADS8f{fill: #116F97;}#By8-SD0vBIz{fill: #FFCB63;}#ryvWrvAvSUf{fill: #FFE2A8;}#SyObSwCPHLM{fill: #C27749;}#rkF-rDRDSLz{fill: #40211D;}#r1qbrDAvrLf{fill: #E18F4E;}#rkibSvAwBUf{fill: #60312C;}#Bkh-HDRvBUG{fill: #FFCB63;}#Hy6WHP0DrIM{fill: #9DB55F;}#HJ0-BwAvr8f{fill: #B9D171;}#SJ1Grv0DBIM{fill: #A8E5FF;}#BJezBPRwS8G{fill: #DBF4FF;}#HybMrw0wrUf{fill: #FFB4A9;}#BkzGSDRDHLM{fill: #FFD9D4;}#H1QfBw0vSUf{fill: #DBF4FF;}#H1QfBw0vSUf_SyrrkOrUf{-webkit-animation-name: H1QfBw0vSUf_SyrrkOrUf_Animation;animation-name: H1QfBw0vSUf_SyrrkOrUf_Animation;}#Bkh-HDRvBUG_Sk1FJdB8f{-webkit-animation-name: Bkh-HDRvBUG_Sk1FJdB8f_Animation;animation-name: Bkh-HDRvBUG_Sk1FJdB8f_Animation;}
    </style>
    <path d="M408.23,302.969v185.784l-25.242,8.414c-3.988,1.329-6.143,5.64-4.814,9.628&#10;&#9;c1.064,3.19,4.033,5.206,7.22,5.206c0.798,0,1.61-0.127,2.408-0.393l30.446-10.149c3.109-1.036,5.204-3.945,5.204-7.221v-191.27&#10;&#9;H408.23z" id="HyNgBP0Dr8z" class=""/>
    <path d="M469.122,302.969v185.784l-25.242,8.414c-3.988,1.329-6.143,5.64-4.815,9.628&#10;&#9;c1.064,3.19,4.033,5.206,7.22,5.206c0.798,0,1.61-0.127,2.408-0.393l30.446-10.149c3.108-1.036,5.204-3.945,5.204-7.221v-191.27&#10;&#9;H469.122z" id="BkHlHPCPSIz"/>
    <path d="M129.013,497.166l-25.242-8.413V302.968H88.548v191.27c0,3.277,2.097,6.186,5.204,7.221&#10;&#9;l30.446,10.149c0.799,0.266,1.61,0.393,2.408,0.393c3.187,0,6.156-2.017,7.22-5.206C135.156,502.805,133,498.494,129.013,497.166z" id="Hk8xHPRDBUG"/>
    <path d="M68.121,497.166l-25.242-8.413V302.968H27.657v191.27c0,3.277,2.097,6.186,5.204,7.221l30.446,10.149&#10;&#9;c0.799,0.266,1.61,0.393,2.408,0.393c3.187,0,6.156-2.017,7.22-5.206C74.264,502.805,72.109,498.494,68.121,497.166z" id="SkPlSvAwSLM"/>
    <polygon points="235.703,260.425 235.703,306.996 276.298,306.996 276.298,260.425 256.001,241.537 " id="HJugSD0wSLz"/>
    <path d="M235.703,209.314v51.111c6.635,0.922,13.408,1.41,20.297,1.41c6.889,0,13.662-0.488,20.297-1.41&#10;&#9;v-51.109L235.703,209.314z" id="SytlHD0DHUM"/>
    <path d="M256.001,0v231.389c63.896,0,115.694-51.799,115.694-115.694S319.897,0,256.001,0z" id="H19gBvCDBLM"/>
    <path d="M341.249,115.694C341.249,51.799,303.082,0,256.001,0c-63.896,0-115.694,51.799-115.694,115.694&#10;&#9;s51.799,115.694,115.694,115.694C303.082,231.389,341.249,179.59,341.249,115.694z" id="r1ogSDCvSLM"/>
    <path d="M256.001,246.612c-67.991,0-123.306-55.315-123.306-123.306S188.01,0,256.001,0&#10;&#9;s123.306,55.315,123.306,123.306S323.991,246.612,256.001,246.612z M256.001,15.223c-59.597,0-108.083,48.485-108.083,108.083&#10;&#9;s48.486,108.083,108.083,108.083s108.083-48.485,108.083-108.083S315.597,15.223,256.001,15.223z" id="SyhlHw0PSIG"/>
    <polygon points="286.446,296.847 286.446,327.293 235.703,347.59 256.001,296.847 " id="SyTeHDRwSIG"/>
    <polygon points="256.001,296.847 256.001,347.59 225.555,327.293 225.555,296.847 " id="Sy0eSvCwrIf"/>
    <polygon points="286.446,327.293 286.446,357.739 235.703,378.036 256.001,327.293 " id="SkJZBwRDS8z"/>
    <polygon points="256.001,327.293 256.001,378.036 225.555,357.739 225.555,327.293 " id="ByxbBvAwS8f"/>
    <path d="M286.446,357.739v116.202c0,16.816-13.63,30.446-30.446,30.446l-20.297-73.324l20.297-73.324H286.446&#10;&#9;z" id="H1W-Bv0wBIz"/>
    <g id="Hkf-Bw0DBLM">
        <path d="M256.001,357.739v146.648c-16.816,0-30.446-13.63-30.446-30.446V357.739H256.001z" id="By7bHw0vBUM"/>
        <path d="M446.287,258.79v76.115c25.222,0,45.669-20.446,45.669-45.669L446.287,258.79z" id="SkEbSDADrLz"/>
    </g>
    <path d="M461.51,289.236l-15.223-30.446l-45.669,30.446c0,25.222,20.446,45.669,45.669,45.669&#10;&#9;C454.694,334.905,461.51,314.458,461.51,289.236z" id="S1S-SwADS8f"/>
    <path d="M471.659,167.452h-30.446l20.297,121.783h30.446V187.749&#10;&#9;C491.956,176.539,482.869,167.452,471.659,167.452z" id="By8-SD0vBIz"/>
    <path d="M441.213,167.452h-20.297c-11.21,0-20.297,9.087-20.297,20.297v101.486h60.892V187.749&#10;&#9;C461.51,176.539,452.423,167.452,441.213,167.452z" id="ryvWrvAvSUf"/>
    <path d="M489.347,76.115l-43.06-20.297v81.189c25.222,0,45.669-20.446,45.669-45.669&#10;&#9;C491.956,85.998,491.031,80.877,489.347,76.115z" id="SyObSwCPHLM"/>
    <path d="M446.287,45.669l14.353,30.446h28.706C483.077,58.379,466.17,45.669,446.287,45.669z" id="rkF-rDRDSLz"/>
    <path d="M460.64,76.115l-43.06-20.287c-10.343,8.373-16.962,21.166-16.962,35.51&#10;&#9;c0,25.222,20.446,45.669,45.669,45.669c8.407,0,15.223-20.446,15.223-45.669C461.51,85.998,461.202,80.877,460.64,76.115z" id="r1qbrDAvrLf"/>
    <path d="M446.287,76.115h14.353c-2.091-17.736-7.726-30.446-14.353-30.446&#10;&#9;c-10.878,0-20.863,3.81-28.706,10.159C421.76,67.652,433.023,76.115,446.287,76.115z" id="rkibSvAwBUf"/>
    <g id="Bkh-HDRvBUG_Sk1FJdB8f" data-animator-group="true">
        <path d="M415.168,216.349c-7.789,0-15.631-0.888-23.408-2.685c-26.826-6.2-49.632-22.475-64.216-45.828&#10;&#9;c-2.227-3.565-1.142-8.261,2.425-10.488s8.261-1.142,10.488,2.425c12.431,19.903,31.869,33.776,54.733,39.06&#10;&#9;c22.863,5.281,46.418,1.348,66.322-11.082c3.566-2.227,8.261-1.142,10.488,2.424c2.227,3.565,1.142,8.261-2.424,10.488&#10;&#9;C452.991,211.018,434.247,216.349,415.168,216.349z" id="Bkh-HDRvBUG"/>
    </g>
    <path d="M65.714,258.79v76.115c25.222,0,45.669-20.446,45.669-45.669L65.714,258.79z" id="Hy6WHP0DrIM"/>
    <path d="M80.937,289.236L65.714,258.79l-45.669,30.446c0,25.222,20.446,45.669,45.669,45.669&#10;&#9;C74.121,334.905,80.937,314.458,80.937,289.236z" id="HJ0-BwAvr8f"/>
    <path d="M91.085,167.452H60.64l20.297,121.783h30.446V187.749&#10;&#9;C111.383,176.539,102.296,167.452,91.085,167.452z" id="SJ1Grv0DBIM"/>
    <path d="M60.64,167.452H40.342c-11.21,0-20.297,9.087-20.297,20.297v101.486h60.892V187.749&#10;&#9;C80.937,176.539,71.85,167.452,60.64,167.452z" id="BJezBPRwS8G"/>
    <path d="M65.714,45.669v91.338c25.222,0,45.669-20.446,45.669-45.669S90.936,45.669,65.714,45.669z" id="HybMrw0wrUf"/>
    <path d="M80.937,91.338c0-25.222-6.816-45.669-15.223-45.669c-25.222,0-45.669,20.446-45.669,45.669&#10;&#9;s20.446,45.669,45.669,45.669C74.121,137.006,80.937,116.56,80.937,91.338z" id="BkzGSDRDHLM"/>
    <g id="H1QfBw0vSUf_SyrrkOrUf" data-animator-group="true">
        <path d="M96.833,216.349c7.789,0,15.631-0.888,23.408-2.685c26.826-6.2,49.632-22.475,64.216-45.828&#10;&#9;c2.227-3.565,1.142-8.261-2.425-10.488c-3.566-2.227-8.261-1.142-10.488,2.425c-12.431,19.903-31.869,33.776-54.733,39.06&#10;&#9;c-22.863,5.281-46.418,1.348-66.322-11.082c-3.566-2.227-8.261-1.142-10.488,2.424c-2.227,3.565-1.142,8.261,2.425,10.488&#10;&#9;C59.01,211.018,77.754,216.349,96.833,216.349z" id="H1QfBw0vSUf"/>
    </g>
    <g id="HkEMHw0wHUM">
    </g>
    <g id="rkBGBPRvr8f">
    </g>
    <g id="rkUzSDCDHLG">
    </g>
    <g id="SkPMSwAvH8f">
    </g>
    <g id="S1uzHwRDrIz">
    </g>
    <g id="B1FzSwCvSIz">
    </g>
    <g id="HkcGSDAwSLf">
    </g>
    <g id="SkjfSPRvrUG">
    </g>
    <g id="HJhGBvCPBUz">
    </g>
    <g id="H1pfSDAPB8M">
    </g>
    <g id="ByCfHwCvHLM">
    </g>
    <g id="Hy1XrPRDHIM">
    </g>
    <g id="rJgmBPAPHUG">
    </g>
    <g id="HybQrDCDB8M">
    </g>
    <g id="HyfXSPRvH8f">
    </g>
</svg>