<svg version="1.1" id="H1KWe-wHIz" xmlns="http://www.w3.org/2000/svg" xmlns:xlink="http://www.w3.org/1999/xlink" x="0px" y="0px" viewBox="0 0 512 512" style="enable-background:new 0 0 512 512;" xmlns:svgjs="http://svgjs.com/svgjs">
    <style type="text/css">
        @-webkit-keyframes rJibg-DBUz_ryFtWPH8M_Animation{0%{-webkit-transform: rotate(0deg);transform: rotate(0deg);transform-box: fill-box;-webkit-transform-origin: 50% 50%;transform-origin: 50% 50%;}8.33%{-webkit-transform: rotate(-8deg);transform: rotate(-8deg);transform-box: fill-box;-webkit-transform-origin: 50% 50%;transform-origin: 50% 50%;}16.67%{-webkit-transform: rotate(0deg);transform: rotate(0deg);transform-box: fill-box;-webkit-transform-origin: 50% 50%;transform-origin: 50% 50%;}25%{-webkit-transform: rotate(0deg);transform: rotate(0deg);transform-box: fill-box;-webkit-transform-origin: 50% 50%;transform-origin: 50% 50%;}38.33%{-webkit-transform: rotate(-8deg);transform: rotate(-8deg);transform-box: fill-box;-webkit-transform-origin: 50% 50%;transform-origin: 50% 50%;}45%{-webkit-transform: rotate(-4deg);transform: rotate(-4deg);transform-box: fill-box;-webkit-transform-origin: 50% 50%;transform-origin: 50% 50%;}58.33%{-webkit-transform: rotate(0deg);transform: rotate(0deg);transform-box: fill-box;-webkit-transform-origin: 50% 50%;transform-origin: 50% 50%;}71.67%{-webkit-transform: rotate(-8deg);transform: rotate(-8deg);transform-box: fill-box;-webkit-transform-origin: 50% 50%;transform-origin: 50% 50%;}81.67%{-webkit-transform: rotate(-4deg);transform: rotate(-4deg);transform-box: fill-box;-webkit-transform-origin: 50% 50%;transform-origin: 50% 50%;}93.33%{-webkit-transform: rotate(0deg);transform: rotate(0deg);transform-box: fill-box;-webkit-transform-origin: 50% 50%;transform-origin: 50% 50%;}100%{-webkit-transform: rotate(0deg);transform: rotate(0deg);transform-box: fill-box;-webkit-transform-origin: 50% 50%;transform-origin: 50% 50%;}}@keyframes rJibg-DBUz_ryFtWPH8M_Animation{0%{-webkit-transform: rotate(0deg);transform: rotate(0deg);transform-box: fill-box;-webkit-transform-origin: 50% 50%;transform-origin: 50% 50%;}8.33%{-webkit-transform: rotate(-8deg);transform: rotate(-8deg);transform-box: fill-box;-webkit-transform-origin: 50% 50%;transform-origin: 50% 50%;}16.67%{-webkit-transform: rotate(0deg);transform: rotate(0deg);transform-box: fill-box;-webkit-transform-origin: 50% 50%;transform-origin: 50% 50%;}25%{-webkit-transform: rotate(0deg);transform: rotate(0deg);transform-box: fill-box;-webkit-transform-origin: 50% 50%;transform-origin: 50% 50%;}38.33%{-webkit-transform: rotate(-8deg);transform: rotate(-8deg);transform-box: fill-box;-webkit-transform-origin: 50% 50%;transform-origin: 50% 50%;}45%{-webkit-transform: rotate(-4deg);transform: rotate(-4deg);transform-box: fill-box;-webkit-transform-origin: 50% 50%;transform-origin: 50% 50%;}58.33%{-webkit-transform: rotate(0deg);transform: rotate(0deg);transform-box: fill-box;-webkit-transform-origin: 50% 50%;transform-origin: 50% 50%;}71.67%{-webkit-transform: rotate(-8deg);transform: rotate(-8deg);transform-box: fill-box;-webkit-transform-origin: 50% 50%;transform-origin: 50% 50%;}81.67%{-webkit-transform: rotate(-4deg);transform: rotate(-4deg);transform-box: fill-box;-webkit-transform-origin: 50% 50%;transform-origin: 50% 50%;}93.33%{-webkit-transform: rotate(0deg);transform: rotate(0deg);transform-box: fill-box;-webkit-transform-origin: 50% 50%;transform-origin: 50% 50%;}100%{-webkit-transform: rotate(0deg);transform: rotate(0deg);transform-box: fill-box;-webkit-transform-origin: 50% 50%;transform-origin: 50% 50%;}}@-webkit-keyframes SJq-eZvS8G_rkY-ZwSLf_Animation{0%{-webkit-transform: rotate(0deg);transform: rotate(0deg);transform-box: fill-box;-webkit-transform-origin: 50% 50%;transform-origin: 50% 50%;}13.33%{-webkit-transform: rotate(-8deg);transform: rotate(-8deg);transform-box: fill-box;-webkit-transform-origin: 50% 50%;transform-origin: 50% 50%;}23.33%{-webkit-transform: rotate(0deg);transform: rotate(0deg);transform-box: fill-box;-webkit-transform-origin: 50% 50%;transform-origin: 50% 50%;}36.67%{-webkit-transform: rotate(3deg);transform: rotate(3deg);transform-box: fill-box;-webkit-transform-origin: 50% 50%;transform-origin: 50% 50%;}48.33%{-webkit-transform: rotate(0deg);transform: rotate(0deg);transform-box: fill-box;-webkit-transform-origin: 50% 50%;transform-origin: 50% 50%;}55.00%{-webkit-transform: rotate(-8deg);transform: rotate(-8deg);transform-box: fill-box;-webkit-transform-origin: 50% 50%;transform-origin: 50% 50%;}70%{-webkit-transform: rotate(1deg);transform: rotate(1deg);transform-box: fill-box;-webkit-transform-origin: 50% 50%;transform-origin: 50% 50%;}86.67%{-webkit-transform: rotate(0deg);transform: rotate(0deg);transform-box: fill-box;-webkit-transform-origin: 50% 50%;transform-origin: 50% 50%;}100%{-webkit-transform: rotate(0deg);transform: rotate(0deg);transform-box: fill-box;-webkit-transform-origin: 50% 50%;transform-origin: 50% 50%;}}@keyframes SJq-eZvS8G_rkY-ZwSLf_Animation{0%{-webkit-transform: rotate(0deg);transform: rotate(0deg);transform-box: fill-box;-webkit-transform-origin: 50% 50%;transform-origin: 50% 50%;}13.33%{-webkit-transform: rotate(-8deg);transform: rotate(-8deg);transform-box: fill-box;-webkit-transform-origin: 50% 50%;transform-origin: 50% 50%;}23.33%{-webkit-transform: rotate(0deg);transform: rotate(0deg);transform-box: fill-box;-webkit-transform-origin: 50% 50%;transform-origin: 50% 50%;}36.67%{-webkit-transform: rotate(3deg);transform: rotate(3deg);transform-box: fill-box;-webkit-transform-origin: 50% 50%;transform-origin: 50% 50%;}48.33%{-webkit-transform: rotate(0deg);transform: rotate(0deg);transform-box: fill-box;-webkit-transform-origin: 50% 50%;transform-origin: 50% 50%;}55.00%{-webkit-transform: rotate(-8deg);transform: rotate(-8deg);transform-box: fill-box;-webkit-transform-origin: 50% 50%;transform-origin: 50% 50%;}70%{-webkit-transform: rotate(1deg);transform: rotate(1deg);transform-box: fill-box;-webkit-transform-origin: 50% 50%;transform-origin: 50% 50%;}86.67%{-webkit-transform: rotate(0deg);transform: rotate(0deg);transform-box: fill-box;-webkit-transform-origin: 50% 50%;transform-origin: 50% 50%;}100%{-webkit-transform: rotate(0deg);transform: rotate(0deg);transform-box: fill-box;-webkit-transform-origin: 50% 50%;transform-origin: 50% 50%;}}#H1KWe-wHIz *{-webkit-animation-duration: 2s;animation-duration: 2s;-webkit-animation-iteration-count: infinite;animation-iteration-count: infinite;-webkit-animation-timing-function: cubic-bezier(0, 0, 1, 1);animation-timing-function: cubic-bezier(0, 0, 1, 1);}#SJq-eZvS8G{fill: #FFCB63;}#rJibg-DBUz{fill: #A45E43;}#rk2WlZPrIz{fill: #85453D;}#rkAZg-vrUz{fill: #A8E5FF;}#rykebxWDS8G{fill: #A8E5FF;}#rkgxZgbPrUG{fill: #DBF4FF;}#HkWxbxbwHLM{fill: #FFB4A9;}#SkMxWxbPB8f{fill: #FFD9D4;}#SyQeWxbPSLz{fill: #084F6D;}#ryVg-ebwB8f{fill: #2DADE3;}#rkrxZeZwrLG{fill: #49C9FF;}#Sk8gZebwSUM{fill: #85453D;}#S1vxZgZwBUf{fill: #A45E43;}#S1_lWg-DSLz{fill: #40211D;}#S1clZe-wrLM{fill: #FFFFFF;}#r1ogWe-vHLz{fill: #FFFFFF;}#BJheZeZPHUz{fill: #FFA754;}#r16gZxWPSLz{fill: #FFCB63;}#r1Cebg-wSUG{fill: #C27749;}#Sy1ZWgbwH8M{fill: #40211D;}#HJeW-l-vrLG{fill: #E18F4E;}#r1WbWlWDHLG{fill: #60312C;}#r1G-Wg-vHLz{fill: #1990C2;}#SyXWbebPB8f{fill: #2DADE3;}#BJNbZl-wSUM{fill: #084F6D;}#S1BWbebwr8G{fill: #116F97;}#H18ZWxWPrIM{fill: #DBF4FF;}#S1Dbbl-wBIM{fill: #FFFFFF;}#SJq-eZvS8G_rkY-ZwSLf{-webkit-animation-name: SJq-eZvS8G_rkY-ZwSLf_Animation;animation-name: SJq-eZvS8G_rkY-ZwSLf_Animation;}#rJibg-DBUz_ryFtWPH8M{-webkit-animation-name: rJibg-DBUz_ryFtWPH8M_Animation;animation-name: rJibg-DBUz_ryFtWPH8M_Animation;}
    </style>
    <g id="SJq-eZvS8G_rkY-ZwSLf" data-animator-group="true">
        <path d="M504.5,97.5c-4.142,0-7.5,3.358-7.5,7.5v11.5c0,41.907-34.093,76-76,76h-30v15h30&#10;&#9;c50.178,0,91-40.822,91-91V105C512,100.858,508.642,97.5,504.5,97.5z" id="SJq-eZvS8G" class=""/>
    </g>
    <g id="rJibg-DBUz_ryFtWPH8M" data-animator-group="true">
        <path d="M7.5,97.5c4.142,0,7.5,3.358,7.5,7.5v11.5c0,41.907,34.093,76,76,76h30v15H91&#10;&#9;c-50.178,0-91-40.822-91-91V105C0,100.858,3.358,97.5,7.5,97.5z" id="rJibg-DBUz"/>
    </g>
    <rect x="163.5" y="192.5" width="65" height="15" id="rk2WlZPrIz"/>
    <g id="H1T-ebPr8f">
        <rect x="283.5" y="192.5" width="65" height="15" id="rkAZg-vrUz"/>
        <path d="M281,172.5h-30l20,102h30v-82C301,181.454,292.046,172.5,281,172.5z" id="rykebxWDS8G"/>
    </g>
    <path d="M251,172.5h-20c-11.046,0-20,8.954-20,20v82h60v-82C271,181.454,262.046,172.5,251,172.5z" id="rkgxZgbPrUG"/>
    <path d="M256,52.5v90c24.853,0,45-20.147,45-45S280.853,52.5,256,52.5z" id="HkWxbxbwHLM"/>
    <path d="M271,97.5c0-24.853-6.716-45-15-45c-24.853,0-45,20.147-45,45s20.147,45,45,45&#10;&#9;C264.284,142.5,271,122.353,271,97.5z" id="SkMxWxbPB8f"/>
    <path d="M256,165c-4.143,0-7.5,3.358-7.5,7.5v112h15v-112C263.5,168.358,260.143,165,256,165z" id="SyQeWxbPSLz"/>
    <path d="M161,172.5h-30l20,102h30v-82C181,181.454,172.046,172.5,161,172.5z" id="ryVg-ebwB8f"/>
    <path d="M131,172.5h-20c-11.046,0-20,8.954-20,20v82h60v-82C151,181.454,142.046,172.5,131,172.5z" id="rkrxZeZwrLG"/>
    <path d="M136,52.5v90c24.853,0,45-20.147,45-45S160.853,52.5,136,52.5z" id="Sk8gZebwSUM"/>
    <path d="M151,97.5c0-24.853-6.716-45-15-45c-24.853,0-45,20.147-45,45s20.147,45,45,45&#10;&#9;C144.284,142.5,151,122.353,151,97.5z" id="S1vxZgZwBUf"/>
    <circle cx="136" cy="30" r="22.5" id="S1_lWg-DSLz"/>
    <g id="ryYg-gZDB8z">
        <circle cx="136" cy="202.5" r="7.5" id="S1clZe-wrLM"/>
        <circle cx="136" cy="232.5" r="7.5" id="r1ogWe-vHLz"/>
    </g>
    <path d="M401,172.5h-30l20,102h30v-82C421,181.454,412.046,172.5,401,172.5z" id="BJheZeZPHUz"/>
    <path d="M371,172.5h-20c-11.046,0-20,8.954-20,20v82h60v-82C391,181.454,382.046,172.5,371,172.5z" id="r16gZxWPSLz"/>
    <path d="M418.429,82.5L376,62.5v80c24.853,0,45-20.147,45-45C421,92.239,420.088,87.193,418.429,82.5z" id="r1Cebg-wSUG"/>
    <path d="M376,52.5l14.143,30h28.286C412.251,65.024,395.592,52.5,376,52.5z" id="Sy1ZWgbwH8M"/>
    <path d="M390.143,82.5l-42.429-19.99C337.522,70.76,331,83.366,331,97.5c0,24.853,20.147,45,45,45&#10;&#9;c8.284,0,15-20.147,15-45C391,92.239,390.696,87.193,390.143,82.5z" id="HJeW-l-vrLG"/>
    <path d="M376,82.5h14.143c-2.06-17.476-7.613-30-14.143-30c-10.719,0-20.557,3.754-28.286,10.01&#10;&#9;C351.831,74.161,362.93,82.5,376,82.5z" id="r1WbWlWDHLG"/>
    <polygon points="388.5,279.5 459.5,504.5 489.5,504.5 489.5,279.5 " id="r1G-Wg-vHLz"/>
    <polygon points="459.5,504.5 22.5,504.5 22.5,279.5 459.5,279.5 459.5,324.5 399.5,384.5 459.5,444.5 " id="SyXWbebPB8f"/>
    <polygon points="504.5,264.5 504.5,294.5 474.5,294.5 444.5,279.5 474.5,264.5 " id="BJNbZl-wSUM"/>
    <rect x="7.5" y="264.5" width="467" height="30" id="S1BWbebwr8G"/>
    <polygon points="459.5,324.5 459.5,444.5 429.5,444.5 389.5,384.5 429.5,324.5 " id="H18ZWxWPrIM"/>
    <rect x="52.5" y="324.5" width="377" height="120" id="S1Dbbl-wBIM"/>
    <g id="HJubWx-PrLM">
    </g>
    <g id="Hkt-ZlWDB8z">
    </g>
    <g id="rJcbbebvrLf">
    </g>
    <g id="HJsW-xWvHIz">
    </g>
    <g id="S1nWWxWwBLz">
    </g>
    <g id="BkTZ-g-wS8M">
    </g>
    <g id="Hk0--l-PSIf">
    </g>
    <g id="rJyf-l-PrLM">
    </g>
    <g id="HygMZlbPS8z">
    </g>
    <g id="rybGblWDS8M">
    </g>
    <g id="SJzzWgWPHIG">
    </g>
    <g id="r17MWg-vSUG">
    </g>
    <g id="r1EM-x-PrLM">
    </g>
    <g id="H1BzbxZDSLM">
    </g>
    <g id="rk8GbebvH8f">
    </g>
</svg>